<svg width="1280" height="788" xmlns="http://www.w3.org/2000/svg"><defs><linearGradient x1="50%" y1="96.632%" x2="50%" y2="15.028%" id="a"><stop stop-color="#FFF" offset="0%"/><stop stop-color="#87A0E1" offset="100%"/></linearGradient></defs><g fill="none" fill-rule="evenodd"><path fill="#E8D2EC" d="M939.192 570.945v100.59l87.391 50.295 87.39-50.295v-100.59l-87.39-50.295z"/><path fill="#D0A4D8" d="M987.57 544.516h82.081v-22.701H987.57z"/><path d="M577.78 289.479c0 63.8-51.636 115.521-115.331 115.521H130.87c-63.293.082-117.408-45.591-128.063-108.083-10.654-62.493 25.262-123.566 84.995-144.529-.091-2.437-.181-4.873-.181-7.31C87.607 79.669 131.487 22.42 194.576 5.537c63.089-16.882 129.628 10.82 162.182 67.521a86.333 86.333 0 0 1 88.823-4.396c28.148 15.07 45.717 44.447 45.701 76.416a87.372 87.372 0 0 1-5.767 31.226c53.693 10.979 92.259 58.285 92.265 113.175" transform="translate(130 330.383)" fill="url(#a)" opacity=".598"/><path d="M201.09 197.291a6.727 6.727 0 1 1 0-13.454 6.727 6.727 0 0 1 0 13.454m-17.94 0a6.727 6.727 0 1 1 0-13.454 6.727 6.727 0 0 1 0 13.454m31.394-24.666H88.97a8.97 8.97 0 0 0-8.969 8.97v17.94a8.97 8.97 0 0 0 8.97 8.968h125.574a8.97 8.97 0 0 0 8.97-8.969v-17.94a8.97 8.97 0 0 0-8.97-8.969m-13.455 56.06a6.727 6.727 0 1 0 0 13.455 6.727 6.727 0 0 0 0-13.455m0-76.242a6.727 6.727 0 1 0 .001-13.455 6.727 6.727 0 0 0 0 13.455" fill="#D0A4D8"/><path d="M201.09 242.14a6.727 6.727 0 1 1 0-13.455 6.727 6.727 0 0 1 0 13.454m-17.94 0a6.727 6.727 0 1 1 0-13.454 6.727 6.727 0 0 1 0 13.454m31.394-24.667H88.97a8.97 8.97 0 0 0-8.969 8.97v17.94a8.97 8.97 0 0 0 8.97 8.97h125.574a8.97 8.97 0 0 0 8.97-8.97v-17.94a8.97 8.97 0 0 0-8.97-8.97m-13.455-65.029a6.727 6.727 0 1 1 0-13.454 6.727 6.727 0 0 1 0 13.454m-17.939 0a6.727 6.727 0 1 1 0-13.454 6.727 6.727 0 0 1 0 13.454m31.394-24.666H88.97a8.969 8.969 0 0 0-8.969 8.97v17.938a8.97 8.97 0 0 0 8.97 8.97h125.574a8.97 8.97 0 0 0 8.97-8.97v-17.939a8.969 8.969 0 0 0-8.97-8.969m-6.727 62.788a6.727 6.727 0 0 0-6.728-6.727 6.727 6.727 0 1 0 0 13.453 6.727 6.727 0 0 0 6.728-6.726" fill="#87189D"/><path d="M973.278 187.532a5.026 5.026 0 1 1 0-10.052 5.026 5.026 0 0 1 0 10.052m-13.402 0a5.026 5.026 0 1 1 0-10.052 5.026 5.026 0 0 1 0 10.052m23.453-18.428h-93.813a6.701 6.701 0 0 0-6.7 6.7v13.403a6.7 6.7 0 0 0 6.7 6.7h93.813a6.7 6.7 0 0 0 6.701-6.7v-13.402c0-3.7-3-6.701-6.7-6.701m-10.052 41.88a5.026 5.026 0 1 0 0 10.052 5.026 5.026 0 0 0 0-10.051m0-56.957a5.026 5.026 0 1 0-.002-10.053 5.026 5.026 0 0 0 .002 10.053" fill="#D0A4D8"/><path d="M973.278 221.036a5.026 5.026 0 1 1 0-10.051 5.026 5.026 0 0 1 0 10.051m-13.402 0a5.026 5.026 0 1 1 0-10.051 5.026 5.026 0 0 1 0 10.051m23.453-18.427h-93.813a6.7 6.7 0 0 0-6.7 6.7v13.402a6.7 6.7 0 0 0 6.7 6.701h93.813a6.7 6.7 0 0 0 6.701-6.701v-13.402c0-3.7-3-6.7-6.7-6.7m-10.052-48.582a5.026 5.026 0 1 1 0-10.051 5.026 5.026 0 0 1 0 10.051m-13.402 0a5.026 5.026 0 1 1 0-10.051 5.026 5.026 0 0 1 0 10.051m23.453-18.428h-93.813a6.7 6.7 0 0 0-6.7 6.701v13.402a6.7 6.7 0 0 0 6.7 6.701h93.813a6.7 6.7 0 0 0 6.701-6.701V142.3a6.7 6.7 0 0 0-6.7-6.701m-5.027 46.907a5.026 5.026 0 1 0-10.05-.001 5.026 5.026 0 0 0 10.05.001M1108.26 152.191a17.293 17.293 0 0 0-23.557 6.755c-4.64 8.371-1.616 18.918 6.755 23.558a17.32 17.32 0 0 0 5.173 1.874l6.21 21.657a2.367 2.367 0 0 0 1.126 1.416l6.722 3.726c1.14.633 2.58.22 3.213-.922l5.346-9.645a2.363 2.363 0 0 0-.921-3.212l-3.445-1.91 1.909-3.444a2.363 2.363 0 0 0-.921-3.213l-3.444-1.909 1.776-3.206c.328-.59.387-1.292.163-1.929l-1.18-3.357a17.548 17.548 0 0 0 1.832-2.68c4.64-8.37 1.615-18.919-6.756-23.559Zm-13.902-24.41a10.474 10.474 0 0 1 8.009 0l41.675 17.331a10.401 10.401 0 0 1 6.403 9.598c0 47.942-29.498 74.654-48.1 82.388a10.474 10.474 0 0 1-8.01 0c-23.224-9.662-48.077-39.386-48.077-82.388 0-4.203 2.539-7.995 6.425-9.598l41.675-17.33Z" fill="#87189D"/><path d="M1112.17 160.175c3.115 9.05-1.694 18.911-10.744 22.027-1.044.36-2.1.613-3.154.767l-1.37 3.285a2.358 2.358 0 0 1-1.412 1.324l-3.466 1.194 1.283 3.723a2.364 2.364 0 0 1-1.465 3.004l-3.724 1.282 1.282 3.725a2.363 2.363 0 0 1-1.464 3.003l-10.428 3.59a2.361 2.361 0 0 1-3.003-1.465l-2.503-7.267a2.366 2.366 0 0 1 .11-1.805l9.877-20.25a17.349 17.349 0 0 1-2.591-4.853c-3.115-9.05 1.695-18.91 10.744-22.028a17.295 17.295 0 0 1 22.028 10.744" fill="#D0A4D8"/><path d="M1091.307 163.006a4.725 4.725 0 1 0 9.451 0 4.727 4.727 0 1 0-9.451 0" fill="#87189D"/><path d="M114.467 284.066v-1.168h-6.304v-10.032h-1.264v11.2h7.568Zm5.424.192c1.568 0 2.576-.624 3.408-1.552l-.768-.688c-.672.704-1.472 1.168-2.608 1.168-1.456 0-2.736-1.008-2.912-2.752h6.56c.016-.192.016-.32.016-.432 0-2.432-1.408-4.384-3.856-4.384-2.288 0-3.968 1.92-3.968 4.32 0 2.576 1.856 4.32 4.128 4.32Zm2.448-4.816h-5.328c.176-1.6 1.264-2.784 2.688-2.784 1.632 0 2.496 1.28 2.64 2.784Zm7.072 7.216c1.312 0 2.416-.368 3.152-1.104.672-.672 1.056-1.648 1.056-2.928v-6.832h-1.232v1.488c-.672-.896-1.68-1.664-3.232-1.664-1.968 0-3.888 1.488-3.888 3.904v.032c0 2.384 1.904 3.872 3.888 3.872 1.52 0 2.528-.784 3.248-1.744v.976c0 1.936-1.184 2.944-3.008 2.944-1.184 0-2.24-.368-3.184-1.056l-.56.96c1.104.768 2.384 1.152 3.76 1.152Zm-.016-4.32c-1.536 0-2.864-1.152-2.864-2.816v-.032c0-1.696 1.296-2.784 2.864-2.784 1.568 0 3.04 1.104 3.04 2.8v.032c0 1.664-1.472 2.8-3.04 2.8Zm8.416-8.352v-1.36h-1.408v1.36h1.408Zm-.096 10.08v-8.272h-1.232v8.272h1.232Zm5.632.144c.592 0 1.056-.128 1.488-.352v-1.056c-.432.208-.784.288-1.2.288-.832 0-1.392-.368-1.392-1.376v-4.832h2.624v-1.088h-2.624v-2.496h-1.232v2.496h-1.152v1.088h1.152v4.992c0 1.68 1.008 2.336 2.336 2.336Zm5.136-10.224v-1.36h-1.408v1.36h1.408Zm-.096 10.08v-8.272h-1.232v8.272h1.232Zm4.096 0v-4.72c0-1.52.992-2.608 2.304-2.608 1.312 0 2.128.912 2.128 2.464v4.864h1.216v-4.768c0-1.632 1.04-2.56 2.288-2.56 1.344 0 2.144.896 2.144 2.496v4.832h1.232v-5.12c0-2.048-1.168-3.328-3.072-3.328-1.44 0-2.32.736-2.912 1.648-.448-.928-1.312-1.648-2.656-1.648-1.392 0-2.128.752-2.672 1.568v-1.392h-1.232v8.272h1.232Zm16.448.176c1.456 0 2.4-.672 2.976-1.408v1.232h1.216v-5.056c0-1.056-.288-1.856-.864-2.432-.592-.592-1.504-.912-2.672-.912-1.216 0-2.096.288-3.008.704l.368 1.008c.768-.352 1.536-.592 2.512-.592 1.552 0 2.448.768 2.448 2.24v.256a8.667 8.667 0 0 0-2.528-.352c-2.096 0-3.536.928-3.536 2.704v.032c0 1.696 1.536 2.576 3.088 2.576Zm.24-.992c-1.12 0-2.08-.608-2.08-1.648v-.032c0-.992.88-1.664 2.416-1.664 1.008 0 1.808.176 2.416.352v.768c0 1.312-1.232 2.224-2.752 2.224Zm9.166.96c.592 0 1.056-.128 1.488-.352v-1.056c-.432.208-.784.288-1.2.288-.832 0-1.392-.368-1.392-1.376v-4.832h2.624v-1.088h-2.624v-2.496h-1.232v2.496h-1.152v1.088h1.152v4.992c0 1.68 1.008 2.336 2.336 2.336Zm6.832.048c1.568 0 2.576-.624 3.408-1.552l-.768-.688c-.672.704-1.472 1.168-2.608 1.168-1.456 0-2.736-1.008-2.912-2.752h6.56c.016-.192.016-.32.016-.432 0-2.432-1.408-4.384-3.856-4.384-2.288 0-3.968 1.92-3.968 4.32 0 2.576 1.856 4.32 4.128 4.32Zm2.448-4.816h-5.328c.176-1.6 1.264-2.784 2.688-2.784 1.632 0 2.496 1.28 2.64 2.784ZM127.619 304.226c2.224 0 3.824-1.248 3.824-3.168v-.032c0-1.712-1.152-2.624-3.648-3.168-2.464-.528-3.04-1.12-3.04-2.176v-.032c0-1.008.928-1.808 2.384-1.808 1.152 0 2.192.368 3.232 1.216l.736-.976c-1.136-.912-2.304-1.376-3.936-1.376-2.128 0-3.68 1.296-3.68 3.056v.032c0 1.84 1.184 2.672 3.76 3.232 2.352.496 2.912 1.088 2.912 2.128v.032c0 1.104-.992 1.904-2.496 1.904-1.552 0-2.672-.528-3.84-1.584l-.784.928c1.344 1.2 2.8 1.792 4.576 1.792Zm9.808.032c1.568 0 2.576-.624 3.408-1.552l-.768-.688c-.672.704-1.472 1.168-2.608 1.168-1.456 0-2.736-1.008-2.912-2.752h6.56c.016-.192.016-.32.016-.432 0-2.432-1.408-4.384-3.856-4.384-2.288 0-3.968 1.92-3.968 4.32 0 2.576 1.856 4.32 4.128 4.32Zm2.448-4.816h-5.328c.176-1.6 1.264-2.784 2.688-2.784 1.632 0 2.496 1.28 2.64 2.784Zm4.64 4.624v-3.296c0-2.496 1.472-3.792 3.28-3.792h.096v-1.328c-1.568-.064-2.768.928-3.376 2.304v-2.16h-1.232v8.272h1.232Zm9.104.064 3.6-8.336h-1.328l-2.8 6.864-2.784-6.864h-1.36l3.584 8.336h1.088Zm8.192.128c1.568 0 2.576-.624 3.408-1.552l-.768-.688c-.672.704-1.472 1.168-2.608 1.168-1.456 0-2.736-1.008-2.912-2.752h6.56c.016-.192.016-.32.016-.432 0-2.432-1.408-4.384-3.856-4.384-2.288 0-3.968 1.92-3.968 4.32 0 2.576 1.856 4.32 4.128 4.32Zm2.448-4.816h-5.328c.176-1.6 1.264-2.784 2.688-2.784 1.632 0 2.496 1.28 2.64 2.784Zm4.64 4.624v-3.296c0-2.496 1.472-3.792 3.28-3.792h.096v-1.328c-1.568-.064-2.768.928-3.376 2.304v-2.16h-1.232v8.272h1.232Z" fill="#000" fill-rule="nonzero"/><path d="M361.223 159.64c0 9.858-7.992 17.849-17.85 17.849s-17.849-7.992-17.849-17.85c0-9.857 7.991-17.849 17.85-17.849 9.857 0 17.849 7.993 17.849 17.85" fill="#3F454F"/><text font-family="Gotham-Book, Gotham" font-size="24.292" font-weight="300" fill="#FFF" transform="translate(80 52)">
                <tspan x="256.159" y="115.192">5</tspan>
            </text><path d="M752.673 137.604c0 9.857-7.991 17.85-17.85 17.85-9.856 0-17.847-7.993-17.847-17.85 0-9.858 7.99-17.849 17.848-17.849 9.858 0 17.849 7.991 17.849 17.85" fill="#3F454F"/><text font-family="Gotham-Book, Gotham" font-size="24.292" font-weight="300" fill="#FFF" transform="translate(80 52)">
                <tspan x="649.605" y="92.406">1</tspan>
            </text><g fill="#000" fill-rule="nonzero"><path d="m319.89 202.722 1.328-2.96h6.096l1.312 2.96h1.36l-5.104-11.28h-1.184l-5.104 11.28h1.296Zm6.928-4.096h-5.104l2.56-5.712 2.544 5.712Zm8.096 4.288c1.552 0 2.544-.672 3.376-1.6l-.784-.736c-.656.704-1.472 1.232-2.528 1.232-1.728 0-3.04-1.424-3.04-3.216v-.032c0-1.776 1.28-3.2 2.96-3.2 1.12 0 1.856.56 2.512 1.248l.816-.864c-.768-.816-1.744-1.472-3.312-1.472-2.416 0-4.24 1.984-4.24 4.32v.032c0 2.32 1.824 4.288 4.24 4.288Zm8.176-.048c.592 0 1.056-.128 1.488-.352v-1.056c-.432.208-.784.288-1.2.288-.832 0-1.392-.368-1.392-1.376v-4.832h2.624v-1.088h-2.624v-2.496h-1.232v2.496h-1.152v1.088h1.152v4.992c0 1.68 1.008 2.336 2.336 2.336Zm6.736.032c1.424 0 2.272-.72 2.832-1.616v1.44h1.216v-8.272h-1.216v4.736c0 1.552-1.072 2.592-2.48 2.592-1.456 0-2.288-.96-2.288-2.496v-4.832h-1.232v5.136c0 1.968 1.168 3.312 3.168 3.312Zm9.28 0c1.456 0 2.4-.672 2.976-1.408v1.232h1.216v-5.056c0-1.056-.288-1.856-.864-2.432-.592-.592-1.504-.912-2.672-.912-1.216 0-2.096.288-3.008.704l.368 1.008c.768-.352 1.536-.592 2.512-.592 1.552 0 2.448.768 2.448 2.24v.256a8.667 8.667 0 0 0-2.528-.352c-2.096 0-3.536.928-3.536 2.704v.032c0 1.696 1.536 2.576 3.088 2.576Zm.24-.992c-1.12 0-2.08-.608-2.08-1.648v-.032c0-.992.88-1.664 2.416-1.664 1.008 0 1.808.176 2.416.352v.768c0 1.312-1.232 2.224-2.752 2.224Zm7.904.816v-11.68h-1.232v11.68h1.232ZM283.522 222.914c2.032 0 3.312-.784 4.48-1.968l-.832-.816c-1.072 1.024-2.08 1.616-3.616 1.616-2.464 0-4.336-2.032-4.336-4.624v-.032c0-2.576 1.856-4.592 4.336-4.592 1.52 0 2.576.64 3.52 1.536l.864-.928c-1.12-1.056-2.336-1.776-4.368-1.776-3.296 0-5.664 2.624-5.664 5.792v.032c0 3.216 2.384 5.76 5.616 5.76Zm9.936 0c2.496 0 4.336-1.984 4.336-4.32v-.032c0-2.336-1.824-4.288-4.304-4.288-2.496 0-4.32 1.984-4.32 4.32v.032c0 2.336 1.808 4.288 4.288 4.288Zm.032-1.104c-1.744 0-3.056-1.44-3.056-3.216v-.032c0-1.744 1.232-3.2 3.024-3.2 1.744 0 3.072 1.456 3.072 3.232v.032c0 1.744-1.248 3.184-3.04 3.184Zm7.76.912v-4.72c0-1.52.992-2.608 2.304-2.608 1.312 0 2.128.912 2.128 2.464v4.864h1.216v-4.768c0-1.632 1.04-2.56 2.288-2.56 1.344 0 2.144.896 2.144 2.496v4.832h1.232v-5.12c0-2.048-1.168-3.328-3.072-3.328-1.44 0-2.32.736-2.912 1.648-.448-.928-1.312-1.648-2.656-1.648-1.392 0-2.128.752-2.672 1.568v-1.392h-1.232v8.272h1.232Zm15.216 0v-4.72c0-1.52.992-2.608 2.304-2.608 1.312 0 2.128.912 2.128 2.464v4.864h1.216v-4.768c0-1.632 1.04-2.56 2.288-2.56 1.344 0 2.144.896 2.144 2.496v4.832h1.232v-5.12c0-2.048-1.168-3.328-3.072-3.328-1.44 0-2.32.736-2.912 1.648-.448-.928-1.312-1.648-2.656-1.648-1.392 0-2.128.752-2.672 1.568v-1.392h-1.232v8.272h1.232Zm17.024.176c1.424 0 2.272-.72 2.832-1.616v1.44h1.216v-8.272h-1.216v4.736c0 1.552-1.072 2.592-2.48 2.592-1.456 0-2.288-.96-2.288-2.496v-4.832h-1.232v5.136c0 1.968 1.168 3.312 3.168 3.312Zm8.048-.176v-4.736c0-1.552 1.056-2.592 2.48-2.592 1.456 0 2.288.96 2.288 2.496v4.832h1.232v-5.136c0-1.968-1.168-3.312-3.168-3.312-1.424 0-2.288.72-2.832 1.616v-1.44h-1.232v8.272h1.232Zm10.064-10.08v-1.36h-1.408v1.36h1.408Zm-.096 10.08v-8.272h-1.232v8.272h1.232Zm6.592.192c1.552 0 2.544-.672 3.376-1.6l-.784-.736c-.656.704-1.472 1.232-2.528 1.232-1.728 0-3.04-1.424-3.04-3.216v-.032c0-1.776 1.28-3.2 2.96-3.2 1.12 0 1.856.56 2.512 1.248l.816-.864c-.768-.816-1.744-1.472-3.312-1.472-2.416 0-4.24 1.984-4.24 4.32v.032c0 2.32 1.824 4.288 4.24 4.288Zm7.872-.016c1.456 0 2.4-.672 2.976-1.408v1.232h1.216v-5.056c0-1.056-.288-1.856-.864-2.432-.592-.592-1.504-.912-2.672-.912-1.216 0-2.096.288-3.008.704l.368 1.008c.768-.352 1.536-.592 2.512-.592 1.552 0 2.448.768 2.448 2.24v.256a8.667 8.667 0 0 0-2.528-.352c-2.096 0-3.536.928-3.536 2.704v.032c0 1.696 1.536 2.576 3.088 2.576Zm.24-.992c-1.12 0-2.08-.608-2.08-1.648v-.032c0-.992.88-1.664 2.416-1.664 1.008 0 1.808.176 2.416.352v.768c0 1.312-1.232 2.224-2.752 2.224Zm9.168.96c.592 0 1.056-.128 1.488-.352v-1.056c-.432.208-.784.288-1.2.288-.832 0-1.392-.368-1.392-1.376v-4.832h2.624v-1.088h-2.624v-2.496h-1.232v2.496h-1.152v1.088h1.152v4.992c0 1.68 1.008 2.336 2.336 2.336Zm5.136-10.224v-1.36h-1.408v1.36h1.408Zm-.096 10.08v-8.272h-1.232v8.272h1.232Zm6.64.192c2.496 0 4.336-1.984 4.336-4.32v-.032c0-2.336-1.824-4.288-4.304-4.288-2.496 0-4.32 1.984-4.32 4.32v.032c0 2.336 1.808 4.288 4.288 4.288Zm.032-1.104c-1.744 0-3.056-1.44-3.056-3.216v-.032c0-1.744 1.232-3.2 3.024-3.2 1.744 0 3.072 1.456 3.072 3.232v.032c0 1.744-1.248 3.184-3.04 3.184Zm7.76.912v-4.736c0-1.552 1.056-2.592 2.48-2.592 1.456 0 2.288.96 2.288 2.496v4.832h1.232v-5.136c0-1.968-1.168-3.312-3.168-3.312-1.424 0-2.288.72-2.832 1.616v-1.44h-1.232v8.272h1.232Zm11.36.16c1.648 0 2.944-.912 2.944-2.48v-.032c0-1.488-1.376-1.984-2.656-2.368-1.104-.336-2.128-.64-2.128-1.424v-.032c0-.688.624-1.2 1.6-1.2.8 0 1.68.304 2.448.8l.56-.928c-.848-.56-1.968-.912-2.976-.912-1.632 0-2.816.944-2.816 2.368v.032c0 1.52 1.44 1.968 2.736 2.336 1.088.304 2.064.624 2.064 1.456v.032c0 .8-.72 1.312-1.712 1.312-.976 0-1.968-.384-2.864-1.056l-.624.88c.928.752 2.24 1.216 3.424 1.216Z"/></g><g fill="#000" fill-rule="nonzero"><path d="m689.56 179.657 3.088-9.088 3.072 9.088h1.072l4-11.28h-1.328l-3.2 9.328-3.072-9.36h-1.04l-3.072 9.36-3.2-9.328h-1.376l4 11.28h1.056Zm14.848.112c1.568 0 2.576-.624 3.408-1.552l-.768-.688c-.672.704-1.472 1.168-2.608 1.168-1.456 0-2.736-1.008-2.912-2.752h6.56c.016-.192.016-.32.016-.432 0-2.432-1.408-4.384-3.856-4.384-2.288 0-3.968 1.92-3.968 4.32 0 2.576 1.856 4.32 4.128 4.32Zm2.448-4.816h-5.328c.176-1.6 1.264-2.784 2.688-2.784 1.632 0 2.496 1.28 2.64 2.784Zm7.808 4.8c2 0 3.952-1.6 3.952-4.304v-.032c0-2.72-1.968-4.288-3.952-4.288-1.52 0-2.496.848-3.168 1.84v-5.072h-1.232v11.68h1.232v-1.584c.64.928 1.632 1.76 3.168 1.76Zm-.224-1.104c-1.536 0-2.992-1.28-2.992-3.2v-.032c0-1.888 1.456-3.184 2.992-3.184 1.568 0 2.912 1.248 2.912 3.2v.032c0 2-1.312 3.184-2.912 3.184Zm11.792.928 1.328-2.96h6.096l1.312 2.96h1.36l-5.104-11.28h-1.184l-5.104 11.28h1.296Zm6.928-4.096h-5.104l2.56-5.712 2.544 5.712Zm7.84 4.272c1.52 0 2.496-.848 3.168-1.84v1.664h1.232v-11.68h-1.232v4.992c-.64-.928-1.632-1.76-3.168-1.76-1.984 0-3.952 1.6-3.952 4.304v.032c0 2.72 1.968 4.288 3.952 4.288Zm.224-1.104c-1.568 0-2.912-1.248-2.912-3.2v-.032c0-2 1.312-3.184 2.912-3.184 1.536 0 2.992 1.28 2.992 3.184v.032c0 1.904-1.456 3.2-2.992 3.2Zm10.4 1.104c1.52 0 2.496-.848 3.168-1.84v1.664h1.232v-11.68h-1.232v4.992c-.64-.928-1.632-1.76-3.168-1.76-1.984 0-3.952 1.6-3.952 4.304v.032c0 2.72 1.968 4.288 3.952 4.288Zm.224-1.104c-1.568 0-2.912-1.248-2.912-3.2v-.032c0-2 1.312-3.184 2.912-3.184 1.536 0 2.992 1.28 2.992 3.184v.032c0 1.904-1.456 3.2-2.992 3.2Zm8.16.928v-3.296c0-2.496 1.472-3.792 3.28-3.792h.096v-1.328c-1.568-.064-2.768.928-3.376 2.304v-2.16h-1.232v8.272h1.232Zm8.162.192c1.568 0 2.576-.624 3.408-1.552l-.768-.688c-.672.704-1.472 1.168-2.608 1.168-1.456 0-2.736-1.008-2.912-2.752h6.56c.016-.192.016-.32.016-.432 0-2.432-1.408-4.384-3.856-4.384-2.288 0-3.968 1.92-3.968 4.32 0 2.576 1.856 4.32 4.128 4.32Zm2.448-4.816h-5.328c.176-1.6 1.264-2.784 2.688-2.784 1.632 0 2.496 1.28 2.64 2.784Zm6.144 4.784c1.648 0 2.944-.912 2.944-2.48v-.032c0-1.488-1.376-1.984-2.656-2.368-1.104-.336-2.128-.64-2.128-1.424v-.032c0-.688.624-1.2 1.6-1.2.8 0 1.68.304 2.448.8l.56-.928c-.848-.56-1.968-.912-2.976-.912-1.632 0-2.816.944-2.816 2.368v.032c0 1.52 1.44 1.968 2.736 2.336 1.088.304 2.064.624 2.064 1.456v.032c0 .8-.72 1.312-1.712 1.312-.976 0-1.968-.384-2.864-1.056l-.624.88c.928.752 2.24 1.216 3.424 1.216Zm7.648 0c1.648 0 2.944-.912 2.944-2.48v-.032c0-1.488-1.376-1.984-2.656-2.368-1.104-.336-2.128-.64-2.128-1.424v-.032c0-.688.624-1.2 1.6-1.2.8 0 1.68.304 2.448.8l.56-.928c-.848-.56-1.968-.912-2.976-.912-1.632 0-2.816.944-2.816 2.368v.032c0 1.52 1.44 1.968 2.736 2.336 1.088.304 2.064.624 2.064 1.456v.032c0 .8-.72 1.312-1.712 1.312-.976 0-1.968-.384-2.864-1.056l-.624.88c.928.752 2.24 1.216 3.424 1.216ZM707.304 199.577v-4.352h3.2l3.248 4.352h1.552l-3.44-4.576c1.76-.32 3.04-1.408 3.04-3.264v-.032c0-.88-.32-1.664-.864-2.208-.704-.704-1.808-1.12-3.184-1.12h-4.816v11.2h1.264Zm3.44-5.488h-3.44v-4.544h3.456c1.808 0 2.864.832 2.864 2.208v.032c0 1.44-1.2 2.304-2.88 2.304Zm9.952 5.68c1.568 0 2.576-.624 3.408-1.552l-.768-.688c-.672.704-1.472 1.168-2.608 1.168-1.456 0-2.736-1.008-2.912-2.752h6.56c.016-.192.016-.32.016-.432 0-2.432-1.408-4.384-3.856-4.384-2.288 0-3.968 1.92-3.968 4.32 0 2.576 1.856 4.32 4.128 4.32Zm2.448-4.816h-5.328c.176-1.6 1.264-2.784 2.688-2.784 1.632 0 2.496 1.28 2.64 2.784Zm11.28 7.184v-10.832h-1.232v1.584c-.64-.928-1.632-1.76-3.168-1.76-1.984 0-3.952 1.6-3.952 4.304v.032c0 2.72 1.968 4.288 3.952 4.288 1.52 0 2.496-.848 3.168-1.84v4.224h1.232Zm-4.176-3.488c-1.568 0-2.912-1.248-2.912-3.2v-.032c0-2 1.312-3.184 2.912-3.184 1.536 0 2.992 1.28 2.992 3.184v.032c0 1.904-1.456 3.2-2.992 3.2Zm9.968 1.104c1.424 0 2.272-.72 2.832-1.616v1.44h1.216v-8.272h-1.216v4.736c0 1.552-1.072 2.592-2.48 2.592-1.456 0-2.288-.96-2.288-2.496v-4.832h-1.232v5.136c0 1.968 1.168 3.312 3.168 3.312Zm10.432.016c1.568 0 2.576-.624 3.408-1.552l-.768-.688c-.672.704-1.472 1.168-2.608 1.168-1.456 0-2.736-1.008-2.912-2.752h6.56c.016-.192.016-.32.016-.432 0-2.432-1.408-4.384-3.856-4.384-2.288 0-3.968 1.92-3.968 4.32 0 2.576 1.856 4.32 4.128 4.32Zm2.448-4.816h-5.328c.176-1.6 1.264-2.784 2.688-2.784 1.632 0 2.496 1.28 2.64 2.784Zm6.144 4.784c1.648 0 2.944-.912 2.944-2.48v-.032c0-1.488-1.376-1.984-2.656-2.368-1.104-.336-2.128-.64-2.128-1.424v-.032c0-.688.624-1.2 1.6-1.2.8 0 1.68.304 2.448.8l.56-.928c-.848-.56-1.968-.912-2.976-.912-1.632 0-2.816.944-2.816 2.368v.032c0 1.52 1.44 1.968 2.736 2.336 1.088.304 2.064.624 2.064 1.456v.032c0 .8-.72 1.312-1.712 1.312-.976 0-1.968-.384-2.864-1.056l-.624.88c.928.752 2.24 1.216 3.424 1.216Zm7.68-.016c.592 0 1.056-.128 1.488-.352v-1.056c-.432.208-.784.288-1.2.288-.832 0-1.392-.368-1.392-1.376v-4.832h2.624v-1.088h-2.624v-2.496h-1.232v2.496h-1.152v1.088h1.152v4.992c0 1.68 1.008 2.336 2.336 2.336Z"/></g><path stroke="#88A0E1" stroke-width="3.344" d="M261.195 159.476h51.178"/><path fill="#88A0E1" d="m270.588 171.86-5.261-12.385 5.26-12.384-29.355 12.384z"/><path stroke="#88A0E1" stroke-width="3.344" d="M427.505 159.476h-51.177"/><path fill="#88A0E1" d="m418.113 147.092 5.26 12.384-5.26 12.384 29.356-12.384z"/><path stroke="#88A0E1" stroke-width="3.344" d="M809.66 137.604h-45.438"/><path fill="#88A0E1" d="m800.268 125.22 5.261 12.385-5.26 12.384 29.354-12.384z"/><path d="M954.271 420.69c0 9.856-7.99 17.848-17.849 17.848-9.857 0-17.848-7.992-17.848-17.849 0-9.858 7.991-17.849 17.848-17.849 9.858 0 17.85 7.991 17.85 17.85" fill="#3F454F"/><path d="M941.612 428.491v-1.75H932.6l4.543-4.032c2.988-2.599 4.3-4.13 4.3-6.607v-.049c0-2.77-2.211-4.81-5.272-4.81-2.988 0-4.591 1.336-6.122 3.62l1.41 1.02c1.36-1.895 2.623-2.915 4.566-2.915 1.846 0 3.425 1.263 3.425 3.255 0 1.7-.947 3.013-3.546 5.345l-6.17 5.441v1.482h11.878Z" fill="#FFF" fill-rule="nonzero"/><g fill="#000" font-family="Gotham-Book, Gotham" font-size="16" font-weight="300"><text letter-spacing="-1.04" transform="translate(869 449.383)">
                        <tspan x=".239" y="13.279">W</tspan>
                        <tspan x="15.871" y="13.279">eb or </tspan>
                        <tspan x="62.383" y="13.279" letter-spacing="-.162">R</tspan>
                        <tspan x="73.63" y="13.279">esou</tspan>
                        <tspan x="111.262" y="13.279" letter-spacing="-.352">r</tspan>
                        <tspan x="117.038" y="13.279" letter-spacing="-.24">c</tspan>
                        <tspan x="125.694" y="13.279">e</tspan>
                    </text><text letter-spacing="-.4" transform="translate(869 449.383)">
                        <tspan x="36.159" y="33.279">A</tspan>
                        <tspan x="47.999" y="33.279">dd</tspan>
                        <tspan x="69.247" y="33.279" letter-spacing="-.352">r</tspan>
                        <tspan x="75.023" y="33.279">e</tspan>
                        <tspan x="84.495" y="33.279" letter-spacing="-.16">s</tspan>
                        <tspan x="92.143" y="33.279">s</tspan>
                    </text></g><path stroke="#88A0E1" stroke-width="3.344" d="M936.521 358.952v32.439"/><path fill="#88A0E1" d="m924.138 368.344 12.384-5.26 12.383 5.26-12.383-29.356z"/><path stroke="#88A0E1" stroke-width="3.344" d="M936.521 499.114v45.402"/><path d="M1134.393 420.69c0 9.856-7.99 17.848-17.849 17.848-9.858 0-17.849-7.992-17.849-17.849 0-9.858 7.991-17.849 17.85-17.849 9.857 0 17.848 7.991 17.848 17.85" fill="#3F454F"/><path d="M1116.184 429.782c3.158 0 5.684-2.089 5.684-5.125v-.049c0-3.11-2.648-4.543-5.611-4.785l5.344-5.928v-1.409h-10.859v1.725h8.308l-5.368 6.049.388 1.142h1.094c2.793 0 4.76 1.166 4.76 3.28v.048c0 1.992-1.651 3.303-3.716 3.303-2.089 0-3.668-.923-4.98-2.526l-1.384 1.239c1.384 1.798 3.498 3.036 6.34 3.036Z" fill="#FFF" fill-rule="nonzero"/><g fill="#000" font-family="Gotham-Book, Gotham" font-size="16" font-weight="300"><text letter-spacing="-.16" transform="translate(1077 449.383)">
                        <tspan x=".817" y="13.279">C</tspan>
                        <tspan x="12.305" y="13.279">or</tspan>
                        <tspan x="29.121" y="13.279" letter-spacing="-.352">r</tspan>
                        <tspan x="34.897" y="13.279">ect IP</tspan>
                    </text><text letter-spacing="-.4" transform="translate(1077 449.383)">
                        <tspan x="8.289" y="33.279">A</tspan>
                        <tspan x="20.129" y="33.279">dd</tspan>
                        <tspan x="41.377" y="33.279" letter-spacing="-.352">r</tspan>
                        <tspan x="47.153" y="33.279">e</tspan>
                        <tspan x="56.625" y="33.279" letter-spacing="-.16">s</tspan>
                        <tspan x="64.273" y="33.279">s</tspan>
                    </text></g><path stroke="#88A0E1" stroke-width="3.344" d="M1116.643 338.988v52.402M1116.643 499.114v25.438"/><path fill="#88A0E1" d="m1104.26 515.161 12.384 5.261 12.384-5.261-12.384 29.355z"/><path stroke="#88A0E1" stroke-width="3.344" d="M703.883 137.604h-49.367"/><path d="M752.673 238.4c0 9.859-7.991 17.85-17.85 17.85-9.856 0-17.847-7.991-17.847-17.85 0-9.856 7.99-17.848 17.848-17.848 9.858 0 17.849 7.992 17.849 17.849" fill="#3F454F"/><path d="M738.483 245.203v-4.033h2.648v-1.603h-2.648v-11.49h-1.676l-9.62 11.709.486 1.384h8.964v4.033h1.846Zm-1.846-5.636h-7.142l7.142-8.77v8.77Z" fill="#FFF" fill-rule="nonzero"/><g fill="#000" font-family="Gotham-Book, Gotham" font-size="16" font-weight="300"><text letter-spacing="-.16" transform="translate(697 266.383)">
                        <tspan x=".097" y="13.991">C</tspan>
                        <tspan x="11.585" y="13.991">or</tspan>
                        <tspan x="28.401" y="13.991" letter-spacing="-.352">r</tspan>
                        <tspan x="34.177" y="13.991">ect IP</tspan>
                    </text><text letter-spacing="-.4" transform="translate(697 266.383)">
                        <tspan x="7.569" y="33.991">A</tspan>
                        <tspan x="19.409" y="33.991">dd</tspan>
                        <tspan x="40.657" y="33.991" letter-spacing="-.352">r</tspan>
                        <tspan x="46.433" y="33.991">e</tspan>
                        <tspan x="55.905" y="33.991" letter-spacing="-.16">s</tspan>
                        <tspan x="63.553" y="33.991">s</tspan>
                    </text></g><path stroke="#88A0E1" stroke-width="3.344" d="M670.479 238.401h37.106"/><path fill="#88A0E1" d="m679.87 250.785-5.26-12.384 5.26-12.384-29.354 12.384z"/><path stroke="#88A0E1" stroke-width="3.344" d="M761.444 238.401h53.367"/><path fill="#E8D2EC" d="M462.267 138.26v100.59l87.39 50.295 87.39-50.295V138.26l-87.39-50.295z"/><path d="M591.471 155.347a4.77 4.77 0 1 1 0-9.541 4.77 4.77 0 0 1 0 9.541Zm-23.856-14.313v11.928a7.157 7.157 0 0 0 7.158 7.156h33.397a7.156 7.156 0 0 0 7.157-7.156v-11.928h-47.712Z" fill="#87189D"/><path d="M567.616 141.034V90.937a7.157 7.157 0 0 1 7.157-7.157h33.398a7.156 7.156 0 0 1 7.156 7.157v50.097h-47.711Z" fill="#D0A4D8"/><path d="M554.942 140.81h-10.59a33.5 33.5 0 0 1-14.01 3.075c-4.999 0-9.727-1.115-14.012-3.075h-10.59c-13.589 0-24.602 21.013-24.602 34.601v3.075c0 5.094 4.133 9.226 9.225 9.226h79.955c5.093 0 9.225-4.132 9.225-9.226v-3.075c0-13.588-11.013-34.6-24.6-34.6" fill="#87189D"/><path d="M554.942 140.81h-10.59a33.5 33.5 0 0 1-14.01 3.075c-4.999 0-9.727-1.115-14.012-3.075h-10.59c-13.589 0-24.602 21.013-24.602 34.601v3.075c0 5.094 4.133 9.226 9.225 9.226h79.955c5.093 0 9.225-4.132 9.225-9.226v-3.075c0-13.588-11.013-34.6-24.6-34.6Z" stroke="#E8D2EC" stroke-width="6"/><path d="M530.341 134.66c15.28 0 27.676-12.396 27.676-27.676 0-15.28-12.397-27.677-27.676-27.677-15.28 0-27.677 12.397-27.677 27.677s12.397 27.676 27.677 27.676" fill="#87189D"/><text font-family="Gotham-Book, Gotham" font-size="16" font-weight="300" fill="#000" transform="translate(80 52)">
                <tspan x="451.037" y="176.214">User</tspan>
            </text><path d="M1159.913 322.672H888.601c-21.334 0-38.629-17.295-38.629-38.63V91.302c0-21.335 17.295-38.63 38.629-38.63h271.312c21.335 0 38.63 17.295 38.63 38.63v192.74c0 21.335-17.295 38.63-38.63 38.63Z" stroke="#88A0E1" stroke-width="3.344" stroke-dasharray="10.163,6.098,10.163,6.098,10.163,6.098"/><path d="M924.2 260.99c3.52 0 5.951-2.448 5.951-5.6v-.032c0-3.152-2.432-5.568-5.952-5.568h-3.888v11.2h3.888Zm0-1.168h-2.625v-8.864h2.624c2.832 0 4.64 1.952 4.64 4.432v.032c0 2.48-1.808 4.4-4.64 4.4Zm9.855 1.168v-9.184l7.232 9.184h1.008v-11.2h-1.232v8.976l-7.056-8.976h-1.184v11.2h1.232Zm15.248.16c2.224 0 3.824-1.248 3.824-3.168v-.032c0-1.712-1.152-2.624-3.648-3.168-2.464-.528-3.04-1.12-3.04-2.176v-.032c0-1.008.928-1.808 2.384-1.808 1.152 0 2.192.368 3.232 1.216l.736-.976c-1.136-.912-2.304-1.376-3.936-1.376-2.128 0-3.68 1.296-3.68 3.056v.032c0 1.84 1.184 2.672 3.76 3.232 2.352.496 2.912 1.088 2.912 2.128v.032c0 1.104-.992 1.904-2.496 1.904-1.552 0-2.672-.528-3.84-1.584l-.784.928c1.344 1.2 2.8 1.792 4.576 1.792ZM916.311 281.15c2.224 0 3.824-1.248 3.824-3.168v-.032c0-1.712-1.152-2.624-3.648-3.168-2.464-.528-3.04-1.12-3.04-2.176v-.032c0-1.008.928-1.808 2.384-1.808 1.152 0 2.192.368 3.232 1.216l.736-.976c-1.136-.912-2.304-1.376-3.936-1.376-2.128 0-3.68 1.296-3.68 3.056v.032c0 1.84 1.184 2.672 3.76 3.232 2.352.496 2.912 1.088 2.912 2.128v.032c0 1.104-.992 1.904-2.496 1.904-1.552 0-2.672-.528-3.84-1.584l-.784.928c1.344 1.2 2.8 1.792 4.576 1.792Zm9.808.032c1.568 0 2.576-.624 3.408-1.552l-.768-.688c-.672.704-1.472 1.168-2.608 1.168-1.456 0-2.736-1.008-2.912-2.752h6.56c.016-.192.016-.32.016-.432 0-2.432-1.408-4.384-3.856-4.384-2.288 0-3.968 1.92-3.968 4.32 0 2.576 1.856 4.32 4.128 4.32Zm2.448-4.816h-5.328c.176-1.6 1.264-2.784 2.688-2.784 1.632 0 2.496 1.28 2.64 2.784Zm4.64 4.624v-3.296c0-2.496 1.472-3.792 3.28-3.792h.096v-1.328c-1.568-.064-2.768.928-3.376 2.304v-2.16h-1.232v8.272h1.232Zm9.104.064 3.6-8.336h-1.328l-2.8 6.864-2.784-6.864h-1.36l3.584 8.336h1.088Zm8.192.128c1.568 0 2.576-.624 3.408-1.552l-.768-.688c-.672.704-1.472 1.168-2.608 1.168-1.456 0-2.736-1.008-2.912-2.752h6.56c.016-.192.016-.32.016-.432 0-2.432-1.408-4.384-3.856-4.384-2.288 0-3.968 1.92-3.968 4.32 0 2.576 1.856 4.32 4.128 4.32Zm2.448-4.816h-5.328c.176-1.6 1.264-2.784 2.688-2.784 1.632 0 2.496 1.28 2.64 2.784Zm4.64 4.624v-3.296c0-2.496 1.472-3.792 3.28-3.792h.096v-1.328c-1.568-.064-2.768.928-3.376 2.304v-2.16h-1.232v8.272h1.232ZM894.995 97.532c5.28 0 8.928-3.672 8.928-8.4v-.048c0-4.728-3.648-8.352-8.928-8.352h-6.264v16.8h6.264Zm0-2.688h-3.312V83.42h3.312c3.528 0 5.832 2.424 5.832 5.712v.048c0 3.288-2.304 5.664-5.832 5.664Zm15.408 2.688V85.58l9.264 11.952h2.472v-16.8h-2.904v11.616l-9-11.616h-2.736v16.8h2.904Zm21.936.24c3.528 0 6-1.872 6-5.016v-.048c0-2.784-1.848-4.056-5.4-4.92-3.216-.768-3.984-1.344-3.984-2.64V85.1c0-1.104 1.008-1.992 2.736-1.992 1.536 0 3.048.6 4.56 1.728l1.584-2.232c-1.704-1.368-3.648-2.112-6.096-2.112-3.336 0-5.736 1.992-5.736 4.872v.048c0 3.096 2.016 4.152 5.592 5.016 3.12.72 3.792 1.368 3.792 2.568v.048c0 1.272-1.152 2.112-2.976 2.112-2.088 0-3.696-.792-5.304-2.184l-1.776 2.112c2.016 1.8 4.44 2.688 7.008 2.688Zm19.632-.24v-5.856h3.696l4.128 5.856h3.48l-4.536-6.36c2.352-.672 4.008-2.328 4.008-5.088v-.048c0-1.464-.504-2.712-1.392-3.624-1.08-1.056-2.736-1.68-4.848-1.68h-7.488v16.8h2.952Zm4.32-8.472h-4.32v-5.64h4.296c2.184 0 3.48.984 3.48 2.784v.048c0 1.704-1.344 2.808-3.456 2.808Zm15.072 8.76c2.328 0 3.984-.936 5.184-2.376l-1.704-1.512c-1.008.984-2.016 1.512-3.432 1.512-1.872 0-3.336-1.152-3.648-3.216h9.312c.024-.288.048-.552.048-.816 0-3.648-2.04-6.816-6.072-6.816-3.624 0-6.192 2.976-6.192 6.6v.048c0 3.912 2.832 6.576 6.504 6.576Zm2.88-7.512h-6.504c.264-1.968 1.512-3.336 3.288-3.336 1.92 0 3.024 1.464 3.216 3.336Zm11.664 7.512c2.472 0 3.936-.984 5.184-2.376l-1.752-1.728c-.912.936-1.92 1.584-3.288 1.584-2.232 0-3.792-1.824-3.792-4.08v-.048c0-2.208 1.536-4.032 3.648-4.032 1.464 0 2.4.648 3.288 1.584l1.8-1.944c-1.176-1.296-2.664-2.184-5.064-2.184-3.792 0-6.576 3.024-6.576 6.624v.048c0 3.6 2.784 6.552 6.552 6.552Zm13.152 0c3.912 0 6.792-3 6.792-6.6v-.048c0-3.624-2.856-6.576-6.744-6.576s-6.768 3-6.768 6.624v.048c0 3.6 2.856 6.552 6.72 6.552Zm.048-2.52c-2.256 0-3.864-1.872-3.864-4.08v-.048c0-2.208 1.488-4.032 3.816-4.032 2.28 0 3.888 1.848 3.888 4.08v.048c0 2.184-1.488 4.032-3.84 4.032Zm12.6 2.232v-4.824c0-3.36 1.776-5.016 4.32-5.016h.168V84.62c-2.232-.096-3.696 1.2-4.488 3.096V84.86h-2.904v12.672h2.904Zm11.52.264c2.064 0 3.384-1.056 4.32-2.376v2.112h2.904v-17.52h-2.904v6.816c-.912-1.176-2.232-2.232-4.32-2.232-3.024 0-5.88 2.376-5.88 6.576v.048c0 4.2 2.904 6.576 5.88 6.576Zm.696-2.52c-1.968 0-3.648-1.608-3.648-4.056v-.048c0-2.52 1.656-4.056 3.648-4.056 1.944 0 3.672 1.608 3.672 4.056v.048c0 2.424-1.728 4.056-3.672 4.056Zm25.824 2.376 6.984-16.92h-3.192l-5.04 12.912-5.064-12.912h-3.264l6.984 16.92h2.592Zm9.816.144c1.92 0 3.24-.792 4.104-1.824v1.56h2.88V90.02c0-3.384-1.824-5.352-5.568-5.352-2.064 0-3.432.432-4.824 1.056l.792 2.328c1.152-.48 2.208-.792 3.624-.792 2.016 0 3.12.96 3.12 2.712v.24c-.984-.312-1.968-.528-3.504-.528-2.952 0-5.136 1.344-5.136 4.152v.048c0 2.544 2.112 3.912 4.512 3.912Zm.816-2.184c-1.368 0-2.448-.672-2.448-1.872v-.048c0-1.224 1.08-1.968 2.904-1.968 1.128 0 2.16.216 2.904.504v.72c0 1.584-1.44 2.664-3.36 2.664Zm12.696 1.92v-17.52h-2.904v17.52h2.904Zm6.96-14.616v-2.76h-3.12v2.76h3.12Zm-.096 14.616V84.86h-2.904v12.672h2.904Zm9.024.264c2.064 0 3.384-1.056 4.32-2.376v2.112h2.904v-17.52h-2.904v6.816c-.912-1.176-2.232-2.232-4.32-2.232-3.024 0-5.88 2.376-5.88 6.576v.048c0 4.2 2.904 6.576 5.88 6.576Zm.696-2.52c-1.968 0-3.648-1.608-3.648-4.056v-.048c0-2.52 1.656-4.056 3.648-4.056 1.944 0 3.672 1.608 3.672 4.056v.048c0 2.424-1.728 4.056-3.672 4.056Zm13.8 2.52c1.92 0 3.24-.792 4.104-1.824v1.56h2.88V90.02c0-3.384-1.824-5.352-5.568-5.352-2.064 0-3.432.432-4.824 1.056l.792 2.328c1.152-.48 2.208-.792 3.624-.792 2.016 0 3.12.96 3.12 2.712v.24c-.984-.312-1.968-.528-3.504-.528-2.952 0-5.136 1.344-5.136 4.152v.048c0 2.544 2.112 3.912 4.512 3.912Zm.816-2.184c-1.368 0-2.448-.672-2.448-1.872v-.048c0-1.224 1.08-1.968 2.904-1.968 1.128 0 2.16.216 2.904.504v.72c0 1.584-1.44 2.664-3.36 2.664Zm13.632 2.136c1.08 0 1.896-.24 2.616-.648v-2.376a3.903 3.903 0 0 1-1.8.432c-.984 0-1.56-.456-1.56-1.584v-6.216h3.408V84.86h-3.408v-3.48h-2.904v3.48h-1.608v2.496h1.608v6.672c0 2.784 1.512 3.72 3.648 3.72Zm8.76-14.832v-2.76h-3.12v2.76h3.12Zm-.096 14.616V84.86h-2.904v12.672h2.904Zm9.816.288c3.912 0 6.792-3 6.792-6.6v-.048c0-3.624-2.856-6.576-6.744-6.576s-6.768 3-6.768 6.624v.048c0 3.6 2.856 6.552 6.72 6.552Zm.048-2.52c-2.256 0-3.864-1.872-3.864-4.08v-.048c0-2.208 1.488-4.032 3.816-4.032 2.28 0 3.888 1.848 3.888 4.08v.048c0 2.184-1.488 4.032-3.84 4.032Zm12.6 2.232V90.38c0-1.968 1.176-3.144 2.856-3.144 1.728 0 2.712 1.128 2.712 3.096v7.2h2.904v-8.064c0-2.952-1.656-4.872-4.512-4.872-1.968 0-3.144 1.032-3.96 2.232V84.86h-2.904v12.672h2.904ZM1041.504 260.99v-5.04h6.464v5.04h1.264v-11.2h-1.264v4.975h-6.464v-4.976h-1.264v11.2h1.264Zm14.736.16c2.224 0 3.824-1.249 3.824-3.169v-.032c0-1.712-1.152-2.624-3.648-3.168-2.464-.528-3.04-1.12-3.04-2.176v-.032c0-1.008.928-1.808 2.384-1.808 1.152 0 2.192.368 3.232 1.216l.736-.976c-1.136-.912-2.304-1.376-3.936-1.376-2.128 0-3.68 1.296-3.68 3.056v.032c0 1.84 1.184 2.672 3.76 3.232 2.352.496 2.912 1.088 2.912 2.128v.032c0 1.104-.992 1.904-2.496 1.904-1.552 0-2.672-.528-3.84-1.584l-.784.928c1.344 1.2 2.8 1.792 4.576 1.792Zm7.632-.16v-9.057l4.08 5.984h.064l4.08-6v9.072h1.264v-11.2h-1.28l-4.08 6.112-4.08-6.112h-1.28v11.2h1.232Zm18.72 0v-3.953h2.72c2.384 0 4.4-1.248 4.4-3.664v-.032c0-2.208-1.664-3.552-4.192-3.552h-4.192v11.2h1.264Zm2.768-5.105h-2.768v-4.928h2.832c1.808 0 3.008.832 3.008 2.432v.032c0 1.472-1.216 2.464-3.072 2.464Zm7.68 5.104v-3.296c0-2.496 1.472-3.792 3.28-3.792h.096v-1.328c-1.568-.064-2.768.928-3.376 2.304v-2.16h-1.232v8.272h1.232Zm8.32.192c2.496 0 4.336-1.984 4.336-4.32v-.032c0-2.336-1.824-4.288-4.304-4.288-2.496 0-4.32 1.984-4.32 4.32v.032c0 2.336 1.808 4.288 4.288 4.288Zm.032-1.104c-1.744 0-3.056-1.44-3.056-3.216v-.032c0-1.744 1.232-3.2 3.024-3.2 1.744 0 3.072 1.456 3.072 3.232v.032c0 1.744-1.248 3.184-3.04 3.184Zm9.296 1.056c.592 0 1.056-.128 1.488-.352v-1.056c-.432.208-.784.288-1.2.288-.832 0-1.392-.368-1.392-1.376v-4.832h2.624v-1.088h-2.624v-2.496h-1.232v2.496h-1.152v1.088h1.152v4.992c0 1.68 1.008 2.336 2.336 2.336Zm6.832.048c1.568 0 2.576-.624 3.408-1.552l-.768-.688c-.672.704-1.472 1.168-2.608 1.168-1.456 0-2.736-1.008-2.912-2.752h6.56c.016-.192.016-.32.016-.432 0-2.432-1.408-4.384-3.856-4.384-2.288 0-3.968 1.92-3.968 4.32 0 2.576 1.856 4.32 4.128 4.32Zm2.448-4.816h-5.328c.176-1.6 1.264-2.784 2.688-2.784 1.632 0 2.496 1.28 2.64 2.784Zm7.136 4.816c1.552 0 2.544-.672 3.376-1.6l-.784-.736c-.656.704-1.472 1.232-2.528 1.232-1.728 0-3.04-1.424-3.04-3.216v-.032c0-1.776 1.28-3.2 2.96-3.2 1.12 0 1.856.56 2.512 1.248l.816-.864c-.768-.816-1.744-1.472-3.312-1.472-2.416 0-4.24 1.984-4.24 4.32v.032c0 2.32 1.824 4.288 4.24 4.288Zm8.176-.048c.592 0 1.056-.128 1.488-.352v-1.056c-.432.208-.784.288-1.2.288-.832 0-1.392-.368-1.392-1.376v-4.832h2.624v-1.088h-2.624v-2.496h-1.232v2.496h-1.152v1.088h1.152v4.992c0 1.68 1.008 2.336 2.336 2.336Zm6.83.048c1.568 0 2.576-.624 3.408-1.552l-.768-.688c-.672.704-1.472 1.168-2.608 1.168-1.456 0-2.736-1.008-2.912-2.752h6.56c.016-.192.016-.32.016-.432 0-2.432-1.408-4.384-3.856-4.384-2.288 0-3.968 1.92-3.968 4.32 0 2.576 1.856 4.32 4.128 4.32Zm2.448-4.816h-5.328c.176-1.6 1.264-2.784 2.688-2.784 1.632 0 2.496 1.28 2.64 2.784Zm6.88 4.8c1.52 0 2.496-.848 3.168-1.84v1.664h1.232v-11.68h-1.232v4.992c-.64-.928-1.632-1.76-3.168-1.76-1.984 0-3.952 1.6-3.952 4.304v.032c0 2.72 1.968 4.288 3.952 4.288Zm.224-1.104c-1.568 0-2.912-1.248-2.912-3.2v-.032c0-2 1.312-3.184 2.912-3.184 1.536 0 2.992 1.28 2.992 3.184v.032c0 1.904-1.456 3.2-2.992 3.2ZM1052.96 281.15c2.224 0 3.824-1.249 3.824-3.169v-.032c0-1.712-1.152-2.624-3.648-3.168-2.464-.528-3.04-1.12-3.04-2.176v-.032c0-1.008.928-1.808 2.384-1.808 1.152 0 2.192.368 3.232 1.216l.736-.976c-1.136-.912-2.304-1.376-3.936-1.376-2.128 0-3.68 1.296-3.68 3.056v.032c0 1.84 1.184 2.672 3.76 3.232 2.352.496 2.912 1.088 2.912 2.128v.032c0 1.104-.992 1.904-2.496 1.904-1.552 0-2.672-.528-3.84-1.584l-.784.928c1.344 1.2 2.8 1.792 4.576 1.792Zm7.632-10.24v-1.36h-1.408v1.36h1.408Zm-.096 10.08v-8.273h-1.232v8.272h1.232Zm6.528 2.591c1.312 0 2.416-.368 3.152-1.104.672-.672 1.056-1.648 1.056-2.928v-6.832H1070v1.488c-.672-.896-1.68-1.664-3.232-1.664-1.968 0-3.888 1.488-3.888 3.904v.032c0 2.384 1.904 3.872 3.888 3.872 1.52 0 2.528-.784 3.248-1.744v.976c0 1.936-1.184 2.944-3.008 2.944-1.184 0-2.24-.368-3.184-1.056l-.56.96c1.104.768 2.384 1.152 3.76 1.152Zm-.016-4.32c-1.536 0-2.864-1.152-2.864-2.816v-.032c0-1.696 1.296-2.784 2.864-2.784 1.568 0 3.04 1.104 3.04 2.8v.032c0 1.664-1.472 2.8-3.04 2.8Zm8.208 1.728v-4.736c0-1.552 1.056-2.592 2.48-2.592 1.456 0 2.288.96 2.288 2.496v4.832h1.232v-5.136c0-1.968-1.168-3.312-3.168-3.312-1.424 0-2.288.72-2.832 1.616v-1.44h-1.232v8.272h1.232Zm10.064-10.08v-1.36h-1.408v1.36h1.408Zm-.096 10.08v-8.272h-1.232v8.272h1.232Zm4.096 0v-4.736c0-1.552 1.056-2.592 2.48-2.592 1.456 0 2.288.96 2.288 2.496v4.832h1.232v-5.136c0-1.968-1.168-3.312-3.168-3.312-1.424 0-2.288.72-2.832 1.616v-1.44h-1.232v8.272h1.232Zm12.288 2.592c1.312 0 2.416-.368 3.152-1.104.672-.672 1.056-1.648 1.056-2.928v-6.832h-1.232v1.488c-.672-.896-1.68-1.664-3.232-1.664-1.968 0-3.888 1.488-3.888 3.904v.032c0 2.384 1.904 3.872 3.888 3.872 1.52 0 2.528-.784 3.248-1.744v.976c0 1.936-1.184 2.944-3.008 2.944-1.184 0-2.24-.368-3.184-1.056l-.56.96c1.104.768 2.384 1.152 3.76 1.152Zm-.016-4.32c-1.536 0-2.864-1.152-2.864-2.816v-.032c0-1.696 1.296-2.784 2.864-2.784 1.568 0 3.04 1.104 3.04 2.8v.032c0 1.664-1.472 2.8-3.04 2.8Zm13.248 1.728v-3.008l2.384-2.416 4.304 5.424h1.584l-5.008-6.304 4.8-4.896h-1.632l-6.432 6.688v-6.688h-1.264v11.2h1.264Zm12.686.192c1.568 0 2.576-.624 3.408-1.552l-.768-.688c-.672.704-1.472 1.168-2.608 1.168-1.456 0-2.736-1.008-2.912-2.752h6.56c.016-.192.016-.32.016-.432 0-2.432-1.408-4.384-3.856-4.384-2.288 0-3.968 1.92-3.968 4.32 0 2.576 1.856 4.32 4.128 4.32Zm2.448-4.816h-5.328c.176-1.6 1.264-2.784 2.688-2.784 1.632 0 2.496 1.28 2.64 2.784Zm3.888 7.232c1.248 0 2.048-.624 2.752-2.336l3.472-8.544h-1.312l-2.656 6.896-3.008-6.896h-1.36l3.76 8.24c-.496 1.168-.96 1.552-1.696 1.552-.528 0-.896-.096-1.296-.304l-.416.976c.56.272 1.072.416 1.76.416Zm10.272-2.448c1.648 0 2.944-.912 2.944-2.48v-.032c0-1.488-1.376-1.984-2.656-2.368-1.104-.336-2.128-.64-2.128-1.424v-.032c0-.688.624-1.2 1.6-1.2.8 0 1.68.304 2.448.8l.56-.928c-.848-.56-1.968-.912-2.976-.912-1.632 0-2.816.944-2.816 2.368v.032c0 1.52 1.44 1.968 2.736 2.336 1.088.304 2.064.624 2.064 1.456v.032c0 .8-.72 1.312-1.712 1.312-.976 0-1.968-.384-2.864-1.056l-.624.88c.928.752 2.24 1.216 3.424 1.216ZM981.814 626.744c2.64 0 4.464-1.836 4.464-4.2v-.024c0-2.364-1.824-4.176-4.464-4.176h-2.916v8.4h2.916Zm0-.876h-1.968v-6.648h1.968c2.124 0 3.48 1.464 3.48 3.324v.024c0 1.86-1.356 3.3-3.48 3.3Zm7.392-6.684v-1.02h-1.056v1.02h1.056Zm-.072 7.56v-6.204h-.924v6.204h.924Zm4.896 1.944c.984 0 1.812-.276 2.364-.828.504-.504.792-1.236.792-2.196v-5.124h-.924v1.116c-.504-.672-1.26-1.248-2.424-1.248-1.476 0-2.916 1.116-2.916 2.928v.024c0 1.788 1.428 2.904 2.916 2.904 1.14 0 1.896-.588 2.436-1.308v.732c0 1.452-.888 2.208-2.256 2.208-.888 0-1.68-.276-2.388-.792l-.42.72c.828.576 1.788.864 2.82.864Zm-.012-3.24c-1.152 0-2.148-.864-2.148-2.112v-.024c0-1.272.972-2.088 2.148-2.088 1.176 0 2.28.828 2.28 2.1v.024c0 1.248-1.104 2.1-2.28 2.1Zm6.312-6.264v-1.02h-1.056v1.02h1.056Zm-.072 7.56v-6.204h-.924v6.204h.924Zm4.224.108c.444 0 .792-.096 1.116-.264v-.792a1.943 1.943 0 0 1-.9.216c-.624 0-1.044-.276-1.044-1.032v-3.624h1.968v-.816h-1.968v-1.872h-.924v1.872h-.864v.816h.864v3.744c0 1.26.756 1.752 1.752 1.752Zm4.62.024c1.092 0 1.8-.504 2.232-1.056v.924h.912v-3.792c0-.792-.216-1.392-.648-1.824-.444-.444-1.128-.684-2.004-.684-.912 0-1.572.216-2.256.528l.276.756c.576-.264 1.152-.444 1.884-.444 1.164 0 1.836.576 1.836 1.68v.192a6.5 6.5 0 0 0-1.896-.264c-1.572 0-2.652.696-2.652 2.028v.024c0 1.272 1.152 1.932 2.316 1.932Zm.18-.744c-.84 0-1.56-.456-1.56-1.236v-.024c0-.744.66-1.248 1.812-1.248.756 0 1.356.132 1.812.264v.576c0 .984-.924 1.668-2.064 1.668Zm5.928.612v-8.76h-.924v8.76h.924Zm3.156 0v-8.76h-.924v8.76h.924Zm3.108 1.956c.936 0 1.536-.468 2.064-1.752l2.604-6.408h-.984l-1.992 5.172-2.256-5.172h-1.02l2.82 6.18c-.372.876-.72 1.164-1.272 1.164a1.94 1.94 0 0 1-.972-.228l-.312.732c.42.204.804.312 1.32.312Zm12.768-1.836c1.668 0 2.868-.936 2.868-2.376v-.024c0-1.284-.864-1.968-2.736-2.376-1.848-.396-2.28-.84-2.28-1.632v-.024c0-.756.696-1.356 1.788-1.356.864 0 1.644.276 2.424.912l.552-.732c-.852-.684-1.728-1.032-2.952-1.032-1.596 0-2.76.972-2.76 2.292v.024c0 1.38.888 2.004 2.82 2.424 1.764.372 2.184.816 2.184 1.596v.024c0 .828-.744 1.428-1.872 1.428-1.164 0-2.004-.396-2.88-1.188l-.588.696c1.008.9 2.1 1.344 3.432 1.344Zm5.724-7.68v-1.02h-1.056v1.02h1.056Zm-.072 7.56v-6.204h-.924v6.204h.924Zm4.896 1.944c.984 0 1.812-.276 2.364-.828.504-.504.792-1.236.792-2.196v-5.124h-.924v1.116c-.504-.672-1.26-1.248-2.424-1.248-1.476 0-2.916 1.116-2.916 2.928v.024c0 1.788 1.428 2.904 2.916 2.904 1.14 0 1.896-.588 2.436-1.308v.732c0 1.452-.888 2.208-2.256 2.208-.888 0-1.68-.276-2.388-.792l-.42.72c.828.576 1.788.864 2.82.864Zm-.012-3.24c-1.152 0-2.148-.864-2.148-2.112v-.024c0-1.272.972-2.088 2.148-2.088 1.176 0 2.28.828 2.28 2.1v.024c0 1.248-1.104 2.1-2.28 2.1Zm6.156 1.296v-3.552c0-1.164.792-1.944 1.86-1.944 1.092 0 1.716.72 1.716 1.872v3.624h.924v-3.852c0-1.476-.876-2.484-2.376-2.484-1.068 0-1.716.54-2.124 1.212v-1.08h-.924v6.204h.924Zm9.18.144c1.176 0 1.932-.468 2.556-1.164l-.576-.516c-.504.528-1.104.876-1.956.876-1.092 0-2.052-.756-2.184-2.064h4.92c.012-.144.012-.24.012-.324 0-1.824-1.056-3.288-2.892-3.288-1.716 0-2.976 1.44-2.976 3.24 0 1.932 1.392 3.24 3.096 3.24Zm1.836-3.612h-3.996c.132-1.2.948-2.088 2.016-2.088 1.224 0 1.872.96 1.98 2.088Zm5.16 3.6c1.14 0 1.872-.636 2.376-1.38v1.248h.924v-8.76h-.924v3.744c-.48-.696-1.224-1.32-2.376-1.32-1.488 0-2.964 1.2-2.964 3.228v.024c0 2.04 1.476 3.216 2.964 3.216Zm.168-.828c-1.176 0-2.184-.936-2.184-2.4v-.024c0-1.5.984-2.388 2.184-2.388 1.152 0 2.244.96 2.244 2.388v.024c0 1.428-1.092 2.4-2.244 2.4ZM987.352 650.301l1.328-2.96h6.096l1.312 2.96h1.36l-5.104-11.28h-1.184l-5.104 11.28h1.296Zm6.928-4.096h-5.104l2.56-5.712 2.544 5.712Zm7.84 4.272c1.52 0 2.496-.848 3.168-1.84v1.664h1.232v-11.68h-1.232v4.992c-.64-.928-1.632-1.76-3.168-1.76-1.984 0-3.952 1.6-3.952 4.304v.032c0 2.72 1.968 4.288 3.952 4.288Zm.224-1.104c-1.568 0-2.912-1.248-2.912-3.2v-.032c0-2 1.312-3.184 2.912-3.184 1.536 0 2.992 1.28 2.992 3.184v.032c0 1.904-1.456 3.2-2.992 3.2Zm10.4 1.104c1.52 0 2.496-.848 3.168-1.84v1.664h1.232v-11.68h-1.232v4.992c-.64-.928-1.632-1.76-3.168-1.76-1.984 0-3.952 1.6-3.952 4.304v.032c0 2.72 1.968 4.288 3.952 4.288Zm.224-1.104c-1.568 0-2.912-1.248-2.912-3.2v-.032c0-2 1.312-3.184 2.912-3.184 1.536 0 2.992 1.28 2.992 3.184v.032c0 1.904-1.456 3.2-2.992 3.2Zm8.16.928v-3.296c0-2.496 1.472-3.792 3.28-3.792h.096v-1.328c-1.568-.064-2.768.928-3.376 2.304v-2.16h-1.232v8.272h1.232Zm8.158.192c1.568 0 2.576-.624 3.408-1.552l-.768-.688c-.672.704-1.472 1.168-2.608 1.168-1.456 0-2.736-1.008-2.912-2.752h6.56c.016-.192.016-.32.016-.432 0-2.432-1.408-4.384-3.856-4.384-2.288 0-3.968 1.92-3.968 4.32 0 2.576 1.856 4.32 4.128 4.32Zm2.448-4.816h-5.328c.176-1.6 1.264-2.784 2.688-2.784 1.632 0 2.496 1.28 2.64 2.784Zm6.144 4.784c1.648 0 2.944-.912 2.944-2.48v-.032c0-1.488-1.376-1.984-2.656-2.368-1.104-.336-2.128-.64-2.128-1.424v-.032c0-.688.624-1.2 1.6-1.2.8 0 1.68.304 2.448.8l.56-.928c-.848-.56-1.968-.912-2.976-.912-1.632 0-2.816.944-2.816 2.368v.032c0 1.52 1.44 1.968 2.736 2.336 1.088.304 2.064.624 2.064 1.456v.032c0 .8-.72 1.312-1.712 1.312-.976 0-1.968-.384-2.864-1.056l-.624.88c.928.752 2.24 1.216 3.424 1.216Zm7.648 0c1.648 0 2.944-.912 2.944-2.48v-.032c0-1.488-1.376-1.984-2.656-2.368-1.104-.336-2.128-.64-2.128-1.424v-.032c0-.688.624-1.2 1.6-1.2.8 0 1.68.304 2.448.8l.56-.928c-.848-.56-1.968-.912-2.976-.912-1.632 0-2.816.944-2.816 2.368v.032c0 1.52 1.44 1.968 2.736 2.336 1.088.304 2.064.624 2.064 1.456v.032c0 .8-.72 1.312-1.712 1.312-.976 0-1.968-.384-2.864-1.056l-.624.88c.928.752 2.24 1.216 3.424 1.216Zm8.848.032c1.568 0 2.576-.624 3.408-1.552l-.768-.688c-.672.704-1.472 1.168-2.608 1.168-1.456 0-2.736-1.008-2.912-2.752h6.56c.016-.192.016-.32.016-.432 0-2.432-1.408-4.384-3.856-4.384-2.288 0-3.968 1.92-3.968 4.32 0 2.576 1.856 4.32 4.128 4.32Zm2.448-4.816h-5.328c.176-1.6 1.264-2.784 2.688-2.784 1.632 0 2.496 1.28 2.64 2.784Zm6.144 4.784c1.648 0 2.944-.912 2.944-2.48v-.032c0-1.488-1.376-1.984-2.656-2.368-1.104-.336-2.128-.64-2.128-1.424v-.032c0-.688.624-1.2 1.6-1.2.8 0 1.68.304 2.448.8l.56-.928c-.848-.56-1.968-.912-2.976-.912-1.632 0-2.816.944-2.816 2.368v.032c0 1.52 1.44 1.968 2.736 2.336 1.088.304 2.064.624 2.064 1.456v.032c0 .8-.72 1.312-1.712 1.312-.976 0-1.968-.384-2.864-1.056l-.624.88c.928.752 2.24 1.216 3.424 1.216ZM1008.52 670.493c2.032 0 3.312-.784 4.48-1.968l-.832-.816c-1.072 1.024-2.08 1.616-3.616 1.616-2.464 0-4.336-2.032-4.336-4.624v-.032c0-2.576 1.856-4.592 4.336-4.592 1.52 0 2.576.64 3.52 1.536l.864-.928c-1.12-1.056-2.336-1.776-4.368-1.776-3.296 0-5.664 2.624-5.664 5.792v.032c0 3.216 2.384 5.76 5.616 5.76Zm8.944-.016c1.456 0 2.4-.672 2.976-1.408v1.232h1.216v-5.056c0-1.056-.288-1.856-.864-2.432-.592-.592-1.504-.912-2.672-.912-1.216 0-2.096.288-3.008.704l.368 1.008c.768-.352 1.536-.592 2.512-.592 1.552 0 2.448.768 2.448 2.24v.256a8.667 8.667 0 0 0-2.528-.352c-2.096 0-3.536.928-3.536 2.704v.032c0 1.696 1.536 2.576 3.088 2.576Zm.24-.992c-1.12 0-2.08-.608-2.08-1.648v-.032c0-.992.88-1.664 2.416-1.664 1.008 0 1.808.176 2.416.352v.768c0 1.312-1.232 2.224-2.752 2.224Zm10.288 1.008c1.552 0 2.544-.672 3.376-1.6l-.784-.736c-.656.704-1.472 1.232-2.528 1.232-1.728 0-3.04-1.424-3.04-3.216v-.032c0-1.776 1.28-3.2 2.96-3.2 1.12 0 1.856.56 2.512 1.248l.816-.864c-.768-.816-1.744-1.472-3.312-1.472-2.416 0-4.24 1.984-4.24 4.32v.032c0 2.32 1.824 4.288 4.24 4.288Zm6.64-.192v-4.736c0-1.552 1.056-2.592 2.48-2.592 1.456 0 2.288.96 2.288 2.496v4.832h1.232v-5.136c0-1.968-1.168-3.312-3.168-3.312-1.424 0-2.288.72-2.832 1.616v-4.848h-1.232v11.68h1.232Zm12.24.192c1.568 0 2.576-.624 3.408-1.552l-.768-.688c-.672.704-1.472 1.168-2.608 1.168-1.456 0-2.736-1.008-2.912-2.752h6.56c.016-.192.016-.32.016-.432 0-2.432-1.408-4.384-3.856-4.384-2.288 0-3.968 1.92-3.968 4.32 0 2.576 1.856 4.32 4.128 4.32Zm2.448-4.816h-5.328c.176-1.6 1.264-2.784 2.688-2.784 1.632 0 2.496 1.28 2.64 2.784ZM302.936 566.445v-1.152h-6.912v-3.92h6.112v-1.152h-6.112v-3.824h6.832v-1.152h-8.096v11.2h8.176Zm3.568 0v-4.736c0-1.552 1.056-2.592 2.48-2.592 1.456 0 2.288.96 2.288 2.496v4.832h1.232v-5.136c0-1.968-1.168-3.312-3.168-3.312-1.424 0-2.288.72-2.832 1.616v-1.44h-1.232v8.272h1.232Zm11.392.144c.592 0 1.056-.128 1.488-.352v-1.056c-.432.208-.784.288-1.2.288-.832 0-1.392-.368-1.392-1.376v-4.832h2.624v-1.088h-2.624v-2.496h-1.232v2.496h-1.152v1.088h1.152v4.992c0 1.68 1.008 2.336 2.336 2.336Zm4.928-.144v-3.296c0-2.496 1.472-3.792 3.28-3.792h.096v-1.328c-1.568-.064-2.768.928-3.376 2.304v-2.16h-1.232v8.272h1.232Zm8.288.176c1.424 0 2.272-.72 2.832-1.616v1.44h1.216v-8.272h-1.216v4.736c0 1.552-1.072 2.592-2.48 2.592-1.456 0-2.288-.96-2.288-2.496v-4.832h-1.232v5.136c0 1.968 1.168 3.312 3.168 3.312Zm9.552-.016c1.648 0 2.944-.912 2.944-2.48v-.032c0-1.488-1.376-1.984-2.656-2.368-1.104-.336-2.128-.64-2.128-1.424v-.032c0-.688.624-1.2 1.6-1.2.8 0 1.68.304 2.448.8l.56-.928c-.848-.56-1.968-.912-2.976-.912-1.632 0-2.816.944-2.816 2.368v.032c0 1.52 1.44 1.968 2.736 2.336 1.088.304 2.064.624 2.064 1.456v.032c0 .8-.72 1.312-1.712 1.312-.976 0-1.968-.384-2.864-1.056l-.624.88c.928.752 2.24 1.216 3.424 1.216Zm7.68-.016c.592 0 1.056-.128 1.488-.352v-1.056c-.432.208-.784.288-1.2.288-.832 0-1.392-.368-1.392-1.376v-4.832h2.624v-1.088h-2.624v-2.496h-1.232v2.496h-1.152v1.088h1.152v4.992c0 1.68 1.008 2.336 2.336 2.336Zm9.968-.144v-5.04h6.464v5.04h1.264v-11.2h-1.264v4.976h-6.464v-4.976h-1.264v11.2h1.264Zm14.736.16c2.224 0 3.824-1.248 3.824-3.168v-.032c0-1.712-1.152-2.624-3.648-3.168-2.464-.528-3.04-1.12-3.04-2.176v-.032c0-1.008.928-1.808 2.384-1.808 1.152 0 2.192.368 3.232 1.216l.736-.976c-1.136-.912-2.304-1.376-3.936-1.376-2.128 0-3.68 1.296-3.68 3.056v.032c0 1.84 1.184 2.672 3.76 3.232 2.352.496 2.912 1.088 2.912 2.128v.032c0 1.104-.992 1.904-2.496 1.904-1.552 0-2.672-.528-3.84-1.584l-.784.928c1.344 1.2 2.8 1.792 4.576 1.792Zm7.632-.16v-9.056l4.08 5.984h.064l4.08-6v9.072h1.264v-11.2h-1.28l-4.08 6.112-4.08-6.112h-1.28v11.2h1.232Zm15.184.16c1.648 0 2.944-.912 2.944-2.48v-.032c0-1.488-1.376-1.984-2.656-2.368-1.104-.336-2.128-.64-2.128-1.424v-.032c0-.688.624-1.2 1.6-1.2.8 0 1.68.304 2.448.8l.56-.928c-.848-.56-1.968-.912-2.976-.912-1.632 0-2.816.944-2.816 2.368v.032c0 1.52 1.44 1.968 2.736 2.336 1.088.304 2.064.624 2.064 1.456v.032c0 .8-.72 1.312-1.712 1.312-.976 0-1.968-.384-2.864-1.056l-.624.88c.928.752 2.24 1.216 3.424 1.216Zm12.768 0c1.648 0 2.944-.912 2.944-2.48v-.032c0-1.488-1.376-1.984-2.656-2.368-1.104-.336-2.128-.64-2.128-1.424v-.032c0-.688.624-1.2 1.6-1.2.8 0 1.68.304 2.448.8l.56-.928c-.848-.56-1.968-.912-2.976-.912-1.632 0-2.816.944-2.816 2.368v.032c0 1.52 1.44 1.968 2.736 2.336 1.088.304 2.064.624 2.064 1.456v.032c0 .8-.72 1.312-1.712 1.312-.976 0-1.968-.384-2.864-1.056l-.624.88c.928.752 2.24 1.216 3.424 1.216Zm8.848.032c1.568 0 2.576-.624 3.408-1.552l-.768-.688c-.672.704-1.472 1.168-2.608 1.168-1.456 0-2.736-1.008-2.912-2.752h6.56c.016-.192.016-.32.016-.432 0-2.432-1.408-4.384-3.856-4.384-2.288 0-3.968 1.92-3.968 4.32 0 2.576 1.856 4.32 4.128 4.32Zm2.448-4.816H414.6c.176-1.6 1.264-2.784 2.688-2.784 1.632 0 2.496 1.28 2.64 2.784Zm7.136 4.816c1.552 0 2.544-.672 3.376-1.6l-.784-.736c-.656.704-1.472 1.232-2.528 1.232-1.728 0-3.04-1.424-3.04-3.216v-.032c0-1.776 1.28-3.2 2.96-3.2 1.12 0 1.856.56 2.512 1.248l.816-.864c-.768-.816-1.744-1.472-3.312-1.472-2.416 0-4.24 1.984-4.24 4.32v.032c0 2.32 1.824 4.288 4.24 4.288Zm8.448-.016c1.424 0 2.272-.72 2.832-1.616v1.44h1.216v-8.272h-1.216v4.736c0 1.552-1.072 2.592-2.48 2.592-1.456 0-2.288-.96-2.288-2.496v-4.832h-1.232v5.136c0 1.968 1.168 3.312 3.168 3.312Zm8.048-.176v-3.296c0-2.496 1.472-3.792 3.28-3.792h.096v-1.328c-1.568-.064-2.768.928-3.376 2.304v-2.16h-1.232v8.272h1.232Zm8.16.192c1.568 0 2.576-.624 3.408-1.552l-.768-.688c-.672.704-1.472 1.168-2.608 1.168-1.456 0-2.736-1.008-2.912-2.752h6.56c.016-.192.016-.32.016-.432 0-2.432-1.408-4.384-3.856-4.384-2.288 0-3.968 1.92-3.968 4.32 0 2.576 1.856 4.32 4.128 4.32Zm2.448-4.816h-5.328c.176-1.6 1.264-2.784 2.688-2.784 1.632 0 2.496 1.28 2.64 2.784Zm4.752 4.624v-11.68h-1.232v11.68h1.232Zm4.144 2.608c1.248 0 2.048-.624 2.752-2.336l3.472-8.544h-1.312l-2.656 6.896-3.008-6.896h-1.36l3.76 8.24c-.496 1.168-.96 1.552-1.696 1.552-.528 0-.896-.096-1.296-.304l-.416.976c.56.272 1.072.416 1.76.416Zm16.64-.016c1.312 0 2.416-.368 3.152-1.104.672-.672 1.056-1.648 1.056-2.928v-6.832h-1.232v1.488c-.672-.896-1.68-1.664-3.232-1.664-1.968 0-3.888 1.488-3.888 3.904v.032c0 2.384 1.904 3.872 3.888 3.872 1.52 0 2.528-.784 3.248-1.744v.976c0 1.936-1.184 2.944-3.008 2.944-1.184 0-2.24-.368-3.184-1.056l-.56.96c1.104.768 2.384 1.152 3.76 1.152Zm-.016-4.32c-1.536 0-2.864-1.152-2.864-2.816v-.032c0-1.696 1.296-2.784 2.864-2.784 1.568 0 3.04 1.104 3.04 2.8v.032c0 1.664-1.472 2.8-3.04 2.8Zm10.592 1.92c1.568 0 2.576-.624 3.408-1.552l-.768-.688c-.672.704-1.472 1.168-2.608 1.168-1.456 0-2.736-1.008-2.912-2.752h6.56c.016-.192.016-.32.016-.432 0-2.432-1.408-4.384-3.856-4.384-2.288 0-3.968 1.92-3.968 4.32 0 2.576 1.856 4.32 4.128 4.32Zm2.448-4.816H487.4c.176-1.6 1.264-2.784 2.688-2.784 1.632 0 2.496 1.28 2.64 2.784Zm4.64 4.624v-4.736c0-1.552 1.056-2.592 2.48-2.592 1.456 0 2.288.96 2.288 2.496v4.832h1.232v-5.136c0-1.968-1.168-3.312-3.168-3.312-1.424 0-2.288.72-2.832 1.616v-1.44h-1.232v8.272h1.232Zm12.24.192c1.568 0 2.576-.624 3.408-1.552l-.768-.688c-.672.704-1.472 1.168-2.608 1.168-1.456 0-2.736-1.008-2.912-2.752h6.56c.016-.192.016-.32.016-.432 0-2.432-1.408-4.384-3.856-4.384-2.288 0-3.968 1.92-3.968 4.32 0 2.576 1.856 4.32 4.128 4.32Zm2.448-4.816h-5.328c.176-1.6 1.264-2.784 2.688-2.784 1.632 0 2.496 1.28 2.64 2.784Zm4.64 4.624v-3.296c0-2.496 1.472-3.792 3.28-3.792h.096v-1.328c-1.568-.064-2.768.928-3.376 2.304v-2.16h-1.232v8.272h1.232Zm6.912.176c1.456 0 2.4-.672 2.976-1.408v1.232h1.216v-5.056c0-1.056-.288-1.856-.864-2.432-.592-.592-1.504-.912-2.672-.912-1.216 0-2.096.288-3.008.704l.368 1.008c.768-.352 1.536-.592 2.512-.592 1.552 0 2.448.768 2.448 2.24v.256a8.667 8.667 0 0 0-2.528-.352c-2.096 0-3.536.928-3.536 2.704v.032c0 1.696 1.536 2.576 3.088 2.576Zm.24-.992c-1.12 0-2.08-.608-2.08-1.648v-.032c0-.992.88-1.664 2.416-1.664 1.008 0 1.808.176 2.416.352v.768c0 1.312-1.232 2.224-2.752 2.224Zm9.168.96c.592 0 1.056-.128 1.488-.352v-1.056c-.432.208-.784.288-1.2.288-.832 0-1.392-.368-1.392-1.376v-4.832h2.624v-1.088h-2.624v-2.496h-1.232v2.496h-1.152v1.088h1.152v4.992c0 1.68 1.008 2.336 2.336 2.336Zm6.832.048c1.568 0 2.576-.624 3.408-1.552l-.768-.688c-.672.704-1.472 1.168-2.608 1.168-1.456 0-2.736-1.008-2.912-2.752h6.56c.016-.192.016-.32.016-.432 0-2.432-1.408-4.384-3.856-4.384-2.288 0-3.968 1.92-3.968 4.32 0 2.576 1.856 4.32 4.128 4.32Zm2.448-4.816h-5.328c.176-1.6 1.264-2.784 2.688-2.784 1.632 0 2.496 1.28 2.64 2.784ZM303.688 586.621c1.456 0 2.4-.672 2.976-1.408v1.232h1.216v-5.056c0-1.056-.288-1.856-.864-2.432-.592-.592-1.504-.912-2.672-.912-1.216 0-2.096.288-3.008.704l.368 1.008c.768-.352 1.536-.592 2.512-.592 1.552 0 2.448.768 2.448 2.24v.256a8.667 8.667 0 0 0-2.528-.352c-2.096 0-3.536.928-3.536 2.704v.032c0 1.696 1.536 2.576 3.088 2.576Zm.24-.992c-1.12 0-2.08-.608-2.08-1.648v-.032c0-.992.88-1.664 2.416-1.664 1.008 0 1.808.176 2.416.352v.768c0 1.312-1.232 2.224-2.752 2.224Zm7.792.816v-4.736c0-1.552 1.056-2.592 2.48-2.592 1.456 0 2.288.96 2.288 2.496v4.832h1.232v-5.136c0-1.968-1.168-3.312-3.168-3.312-1.424 0-2.288.72-2.832 1.616v-1.44h-1.232v8.272h1.232Zm12.096.176c1.52 0 2.496-.848 3.168-1.84v1.664h1.232v-11.68h-1.232v4.992c-.64-.928-1.632-1.76-3.168-1.76-1.984 0-3.952 1.6-3.952 4.304v.032c0 2.72 1.968 4.288 3.952 4.288Zm.224-1.104c-1.568 0-2.912-1.248-2.912-3.2v-.032c0-2 1.312-3.184 2.912-3.184 1.536 0 2.992 1.28 2.992 3.184v.032c0 1.904-1.456 3.2-2.992 3.2Zm14.464 1.088c1.648 0 2.944-.912 2.944-2.48v-.032c0-1.488-1.376-1.984-2.656-2.368-1.104-.336-2.128-.64-2.128-1.424v-.032c0-.688.624-1.2 1.6-1.2.8 0 1.68.304 2.448.8l.56-.928c-.848-.56-1.968-.912-2.976-.912-1.632 0-2.816.944-2.816 2.368v.032c0 1.52 1.44 1.968 2.736 2.336 1.088.304 2.064.624 2.064 1.456v.032c0 .8-.72 1.312-1.712 1.312-.976 0-1.968-.384-2.864-1.056l-.624.88c.928.752 2.24 1.216 3.424 1.216Zm6.464-.16v-4.736c0-1.552 1.056-2.592 2.48-2.592 1.456 0 2.288.96 2.288 2.496v4.832h1.232v-5.136c0-1.968-1.168-3.312-3.168-3.312-1.424 0-2.288.72-2.832 1.616v-4.848h-1.232v11.68h1.232Zm11.088.176c1.456 0 2.4-.672 2.976-1.408v1.232h1.216v-5.056c0-1.056-.288-1.856-.864-2.432-.592-.592-1.504-.912-2.672-.912-1.216 0-2.096.288-3.008.704l.368 1.008c.768-.352 1.536-.592 2.512-.592 1.552 0 2.448.768 2.448 2.24v.256a8.667 8.667 0 0 0-2.528-.352c-2.096 0-3.536.928-3.536 2.704v.032c0 1.696 1.536 2.576 3.088 2.576Zm.24-.992c-1.12 0-2.08-.608-2.08-1.648v-.032c0-.992.88-1.664 2.416-1.664 1.008 0 1.808.176 2.416.352v.768c0 1.312-1.232 2.224-2.752 2.224Zm7.792.816v-3.296c0-2.496 1.472-3.792 3.28-3.792h.096v-1.328c-1.568-.064-2.768.928-3.376 2.304v-2.16h-1.232v8.272h1.232Zm8.16.192c1.568 0 2.576-.624 3.408-1.552l-.768-.688c-.672.704-1.472 1.168-2.608 1.168-1.456 0-2.736-1.008-2.912-2.752h6.56c.016-.192.016-.32.016-.432 0-2.432-1.408-4.384-3.856-4.384-2.288 0-3.968 1.92-3.968 4.32 0 2.576 1.856 4.32 4.128 4.32Zm2.448-4.816h-5.328c.176-1.6 1.264-2.784 2.688-2.784 1.632 0 2.496 1.28 2.64 2.784Zm9.44 7.184v-4.144c.64.928 1.632 1.76 3.168 1.76 2 0 3.952-1.6 3.952-4.304v-.032c0-2.72-1.968-4.288-3.952-4.288-1.52 0-2.496.848-3.168 1.84v-1.664h-1.232v10.832h1.232Zm2.944-3.488c-1.536 0-2.992-1.28-2.992-3.2v-.032c0-1.888 1.456-3.184 2.992-3.184 1.568 0 2.912 1.248 2.912 3.2v.032c0 2-1.312 3.184-2.912 3.184Zm7.68.928v-3.296c0-2.496 1.472-3.792 3.28-3.792h.096v-1.328c-1.568-.064-2.768.928-3.376 2.304v-2.16h-1.232v8.272h1.232Zm6.688-10.08v-1.36h-1.408v1.36h1.408Zm-.096 10.08v-8.272h-1.232v8.272h1.232Zm6.72.064 3.6-8.336h-1.328l-2.8 6.864-2.784-6.864h-1.36l3.584 8.336h1.088Zm7.2.112c1.456 0 2.4-.672 2.976-1.408v1.232h1.216v-5.056c0-1.056-.288-1.856-.864-2.432-.592-.592-1.504-.912-2.672-.912-1.216 0-2.096.288-3.008.704l.368 1.008c.768-.352 1.536-.592 2.512-.592 1.552 0 2.448.768 2.448 2.24v.256a8.667 8.667 0 0 0-2.528-.352c-2.096 0-3.536.928-3.536 2.704v.032c0 1.696 1.536 2.576 3.088 2.576Zm.24-.992c-1.12 0-2.08-.608-2.08-1.648v-.032c0-.992.88-1.664 2.416-1.664 1.008 0 1.808.176 2.416.352v.768c0 1.312-1.232 2.224-2.752 2.224Zm9.168.96c.592 0 1.056-.128 1.488-.352v-1.056c-.432.208-.784.288-1.2.288-.832 0-1.392-.368-1.392-1.376v-4.832h2.624v-1.088h-2.624v-2.496h-1.232v2.496h-1.152v1.088h1.152v4.992c0 1.68 1.008 2.336 2.336 2.336Zm6.832.048c1.568 0 2.576-.624 3.408-1.552l-.768-.688c-.672.704-1.472 1.168-2.608 1.168-1.456 0-2.736-1.008-2.912-2.752h6.56c.016-.192.016-.32.016-.432 0-2.432-1.408-4.384-3.856-4.384-2.288 0-3.968 1.92-3.968 4.32 0 2.576 1.856 4.32 4.128 4.32Zm2.448-4.816h-5.328c.176-1.6 1.264-2.784 2.688-2.784 1.632 0 2.496 1.28 2.64 2.784Zm10.944 4.784c1.648 0 2.944-.912 2.944-2.48v-.032c0-1.488-1.376-1.984-2.656-2.368-1.104-.336-2.128-.64-2.128-1.424v-.032c0-.688.624-1.2 1.6-1.2.8 0 1.68.304 2.448.8l.56-.928c-.848-.56-1.968-.912-2.976-.912-1.632 0-2.816.944-2.816 2.368v.032c0 1.52 1.44 1.968 2.736 2.336 1.088.304 2.064.624 2.064 1.456v.032c0 .8-.72 1.312-1.712 1.312-.976 0-1.968-.384-2.864-1.056l-.624.88c.928.752 2.24 1.216 3.424 1.216Zm6.672-10.24v-1.36h-1.408v1.36h1.408Zm-.096 10.08v-8.272h-1.232v8.272h1.232Zm6.528 2.592c1.312 0 2.416-.368 3.152-1.104.672-.672 1.056-1.648 1.056-2.928v-6.832h-1.232v1.488c-.672-.896-1.68-1.664-3.232-1.664-1.968 0-3.888 1.488-3.888 3.904v.032c0 2.384 1.904 3.872 3.888 3.872 1.52 0 2.528-.784 3.248-1.744v.976c0 1.936-1.184 2.944-3.008 2.944-1.184 0-2.24-.368-3.184-1.056l-.56.96c1.104.768 2.384 1.152 3.76 1.152Zm-.016-4.32c-1.536 0-2.864-1.152-2.864-2.816v-.032c0-1.696 1.296-2.784 2.864-2.784 1.568 0 3.04 1.104 3.04 2.8v.032c0 1.664-1.472 2.8-3.04 2.8Zm8.208 1.728v-4.736c0-1.552 1.056-2.592 2.48-2.592 1.456 0 2.288.96 2.288 2.496v4.832h1.232v-5.136c0-1.968-1.168-3.312-3.168-3.312-1.424 0-2.288.72-2.832 1.616v-1.44h-1.232v8.272h1.232Zm10.064-10.08v-1.36h-1.408v1.36h1.408Zm-.096 10.08v-8.272h-1.232v8.272h1.232Zm4.096 0v-4.736c0-1.552 1.056-2.592 2.48-2.592 1.456 0 2.288.96 2.288 2.496v4.832h1.232v-5.136c0-1.968-1.168-3.312-3.168-3.312-1.424 0-2.288.72-2.832 1.616v-1.44h-1.232v8.272h1.232Zm12.288 2.592c1.312 0 2.416-.368 3.152-1.104.672-.672 1.056-1.648 1.056-2.928v-6.832h-1.232v1.488c-.672-.896-1.68-1.664-3.232-1.664-1.968 0-3.888 1.488-3.888 3.904v.032c0 2.384 1.904 3.872 3.888 3.872 1.52 0 2.528-.784 3.248-1.744v.976c0 1.936-1.184 2.944-3.008 2.944-1.184 0-2.24-.368-3.184-1.056l-.56.96c1.104.768 2.384 1.152 3.76 1.152Zm-.016-4.32c-1.536 0-2.864-1.152-2.864-2.816v-.032c0-1.696 1.296-2.784 2.864-2.784 1.568 0 3.04 1.104 3.04 2.8v.032c0 1.664-1.472 2.8-3.04 2.8Zm13.008 1.728v-2.16l1.68-1.696 2.96 3.856h1.472l-3.584-4.72 3.472-3.552h-1.536l-4.464 4.656v-8.064h-1.232v11.68h1.232Zm10.688.192c1.568 0 2.576-.624 3.408-1.552l-.768-.688c-.672.704-1.472 1.168-2.608 1.168-1.456 0-2.736-1.008-2.912-2.752h6.56c.016-.192.016-.32.016-.432 0-2.432-1.408-4.384-3.856-4.384-2.288 0-3.968 1.92-3.968 4.32 0 2.576 1.856 4.32 4.128 4.32Zm2.448-4.816h-5.328c.176-1.6 1.264-2.784 2.688-2.784 1.632 0 2.496 1.28 2.64 2.784Zm3.888 7.232c1.248 0 2.048-.624 2.752-2.336l3.472-8.544h-1.312l-2.656 6.896-3.008-6.896h-1.36l3.76 8.24c-.496 1.168-.96 1.552-1.696 1.552-.528 0-.896-.096-1.296-.304l-.416.976c.56.272 1.072.416 1.76.416Zm10.272-2.448c1.648 0 2.944-.912 2.944-2.48v-.032c0-1.488-1.376-1.984-2.656-2.368-1.104-.336-2.128-.64-2.128-1.424v-.032c0-.688.624-1.2 1.6-1.2.8 0 1.68.304 2.448.8l.56-.928c-.848-.56-1.968-.912-2.976-.912-1.632 0-2.816.944-2.816 2.368v.032c0 1.52 1.44 1.968 2.736 2.336 1.088.304 2.064.624 2.064 1.456v.032c0 .8-.72 1.312-1.712 1.312-.976 0-1.968-.384-2.864-1.056l-.624.88c.928.752 2.24 1.216 3.424 1.216ZM306.696 606.621c1.424 0 2.272-.72 2.832-1.616v1.44h1.216v-8.272h-1.216v4.736c0 1.552-1.072 2.592-2.48 2.592-1.456 0-2.288-.96-2.288-2.496v-4.832h-1.232v5.136c0 1.968 1.168 3.312 3.168 3.312Zm9.552-.016c1.648 0 2.944-.912 2.944-2.48v-.032c0-1.488-1.376-1.984-2.656-2.368-1.104-.336-2.128-.64-2.128-1.424v-.032c0-.688.624-1.2 1.6-1.2.8 0 1.68.304 2.448.8l.56-.928c-.848-.56-1.968-.912-2.976-.912-1.632 0-2.816.944-2.816 2.368v.032c0 1.52 1.44 1.968 2.736 2.336 1.088.304 2.064.624 2.064 1.456v.032c0 .8-.72 1.312-1.712 1.312-.976 0-1.968-.384-2.864-1.056l-.624.88c.928.752 2.24 1.216 3.424 1.216Zm8.848.032c1.568 0 2.576-.624 3.408-1.552l-.768-.688c-.672.704-1.472 1.168-2.608 1.168-1.456 0-2.736-1.008-2.912-2.752h6.56c.016-.192.016-.32.016-.432 0-2.432-1.408-4.384-3.856-4.384-2.288 0-3.968 1.92-3.968 4.32 0 2.576 1.856 4.32 4.128 4.32Zm2.448-4.816h-5.328c.176-1.6 1.264-2.784 2.688-2.784 1.632 0 2.496 1.28 2.64 2.784Zm6.88 4.8c1.52 0 2.496-.848 3.168-1.84v1.664h1.232v-11.68h-1.232v4.992c-.64-.928-1.632-1.76-3.168-1.76-1.984 0-3.952 1.6-3.952 4.304v.032c0 2.72 1.968 4.288 3.952 4.288Zm.224-1.104c-1.568 0-2.912-1.248-2.912-3.2v-.032c0-2 1.312-3.184 2.912-3.184 1.536 0 2.992 1.28 2.992 3.184v.032c0 1.904-1.456 3.2-2.992 3.2Zm14.496 1.072c.592 0 1.056-.128 1.488-.352v-1.056c-.432.208-.784.288-1.2.288-.832 0-1.392-.368-1.392-1.376v-4.832h2.624v-1.088h-2.624v-2.496h-1.232v2.496h-1.152v1.088h1.152v4.992c0 1.68 1.008 2.336 2.336 2.336Zm6.99.048c2.496 0 4.336-1.984 4.336-4.32v-.032c0-2.336-1.824-4.288-4.304-4.288-2.496 0-4.32 1.984-4.32 4.32v.032c0 2.336 1.808 4.288 4.288 4.288Zm.032-1.104c-1.744 0-3.056-1.44-3.056-3.216v-.032c0-1.744 1.232-3.2 3.024-3.2 1.744 0 3.072 1.456 3.072 3.232v.032c0 1.744-1.248 3.184-3.04 3.184Zm14.064 1.072c1.648 0 2.944-.912 2.944-2.48v-.032c0-1.488-1.376-1.984-2.656-2.368-1.104-.336-2.128-.64-2.128-1.424v-.032c0-.688.624-1.2 1.6-1.2.8 0 1.68.304 2.448.8l.56-.928c-.848-.56-1.968-.912-2.976-.912-1.632 0-2.816.944-2.816 2.368v.032c0 1.52 1.44 1.968 2.736 2.336 1.088.304 2.064.624 2.064 1.456v.032c0 .8-.72 1.312-1.712 1.312-.976 0-1.968-.384-2.864-1.056l-.624.88c.928.752 2.24 1.216 3.424 1.216Zm6.672-10.24v-1.36h-1.408v1.36h1.408Zm-.096 10.08v-8.272h-1.232v8.272h1.232Zm6.528 2.592c1.312 0 2.416-.368 3.152-1.104.672-.672 1.056-1.648 1.056-2.928v-6.832h-1.232v1.488c-.672-.896-1.68-1.664-3.232-1.664-1.968 0-3.888 1.488-3.888 3.904v.032c0 2.384 1.904 3.872 3.888 3.872 1.52 0 2.528-.784 3.248-1.744v.976c0 1.936-1.184 2.944-3.008 2.944-1.184 0-2.24-.368-3.184-1.056l-.56.96c1.104.768 2.384 1.152 3.76 1.152Zm-.016-4.32c-1.536 0-2.864-1.152-2.864-2.816v-.032c0-1.696 1.296-2.784 2.864-2.784 1.568 0 3.04 1.104 3.04 2.8v.032c0 1.664-1.472 2.8-3.04 2.8Zm8.208 1.728v-4.736c0-1.552 1.056-2.592 2.48-2.592 1.456 0 2.288.96 2.288 2.496v4.832h1.232v-5.136c0-1.968-1.168-3.312-3.168-3.312-1.424 0-2.288.72-2.832 1.616v-1.44h-1.232v8.272h1.232Zm14.656 0v-3.296c0-2.496 1.472-3.792 3.28-3.792h.096v-1.328c-1.568-.064-2.768.928-3.376 2.304v-2.16h-1.232v8.272h1.232Zm8.16.192c1.568 0 2.576-.624 3.408-1.552l-.768-.688c-.672.704-1.472 1.168-2.608 1.168-1.456 0-2.736-1.008-2.912-2.752h6.56c.016-.192.016-.32.016-.432 0-2.432-1.408-4.384-3.856-4.384-2.288 0-3.968 1.92-3.968 4.32 0 2.576 1.856 4.32 4.128 4.32Zm2.448-4.816h-5.328c.176-1.6 1.264-2.784 2.688-2.784 1.632 0 2.496 1.28 2.64 2.784Zm6.144 4.784c1.648 0 2.944-.912 2.944-2.48v-.032c0-1.488-1.376-1.984-2.656-2.368-1.104-.336-2.128-.64-2.128-1.424v-.032c0-.688.624-1.2 1.6-1.2.8 0 1.68.304 2.448.8l.56-.928c-.848-.56-1.968-.912-2.976-.912-1.632 0-2.816.944-2.816 2.368v.032c0 1.52 1.44 1.968 2.736 2.336 1.088.304 2.064.624 2.064 1.456v.032c0 .8-.72 1.312-1.712 1.312-.976 0-1.968-.384-2.864-1.056l-.624.88c.928.752 2.24 1.216 3.424 1.216Zm9.008.032c2.496 0 4.336-1.984 4.336-4.32v-.032c0-2.336-1.824-4.288-4.304-4.288-2.496 0-4.32 1.984-4.32 4.32v.032c0 2.336 1.808 4.288 4.288 4.288Zm.032-1.104c-1.744 0-3.056-1.44-3.056-3.216v-.032c0-1.744 1.232-3.2 3.024-3.2 1.744 0 3.072 1.456 3.072 3.232v.032c0 1.744-1.248 3.184-3.04 3.184Zm9.568 1.088c1.424 0 2.272-.72 2.832-1.616v1.44h1.216v-8.272h-1.216v4.736c0 1.552-1.072 2.592-2.48 2.592-1.456 0-2.288-.96-2.288-2.496v-4.832h-1.232v5.136c0 1.968 1.168 3.312 3.168 3.312Zm8.048-.176v-3.296c0-2.496 1.472-3.792 3.28-3.792h.096v-1.328c-1.568-.064-2.768.928-3.376 2.304v-2.16h-1.232v8.272h1.232Zm8.274.192c1.552 0 2.544-.672 3.376-1.6l-.784-.736c-.656.704-1.472 1.232-2.528 1.232-1.728 0-3.04-1.424-3.04-3.216v-.032c0-1.776 1.28-3.2 2.96-3.2 1.12 0 1.856.56 2.512 1.248l.816-.864c-.768-.816-1.744-1.472-3.312-1.472-2.416 0-4.24 1.984-4.24 4.32v.032c0 2.32 1.824 4.288 4.24 4.288Zm8.544 0c1.568 0 2.576-.624 3.408-1.552l-.768-.688c-.672.704-1.472 1.168-2.608 1.168-1.456 0-2.736-1.008-2.912-2.752h6.56c.016-.192.016-.32.016-.432 0-2.432-1.408-4.384-3.856-4.384-2.288 0-3.968 1.92-3.968 4.32 0 2.576 1.856 4.32 4.128 4.32Zm2.448-4.816h-5.328c.176-1.6 1.264-2.784 2.688-2.784 1.632 0 2.496 1.28 2.64 2.784Zm9.44 4.624v-3.296c0-2.496 1.472-3.792 3.28-3.792h.096v-1.328c-1.568-.064-2.768.928-3.376 2.304v-2.16h-1.232v8.272h1.232Zm8.16.192c1.568 0 2.576-.624 3.408-1.552l-.768-.688c-.672.704-1.472 1.168-2.608 1.168-1.456 0-2.736-1.008-2.912-2.752h6.56c.016-.192.016-.32.016-.432 0-2.432-1.408-4.384-3.856-4.384-2.288 0-3.968 1.92-3.968 4.32 0 2.576 1.856 4.32 4.128 4.32Zm2.448-4.816h-5.328c.176-1.6 1.264-2.784 2.688-2.784 1.632 0 2.496 1.28 2.64 2.784Zm7.136 4.816c1.552 0 2.544-.672 3.376-1.6l-.784-.736c-.656.704-1.472 1.232-2.528 1.232-1.728 0-3.04-1.424-3.04-3.216v-.032c0-1.776 1.28-3.2 2.96-3.2 1.12 0 1.856.56 2.512 1.248l.816-.864c-.768-.816-1.744-1.472-3.312-1.472-2.416 0-4.24 1.984-4.24 4.32v.032c0 2.32 1.824 4.288 4.24 4.288Zm8.702 0c2.496 0 4.336-1.984 4.336-4.32v-.032c0-2.336-1.824-4.288-4.304-4.288-2.496 0-4.32 1.984-4.32 4.32v.032c0 2.336 1.808 4.288 4.288 4.288Zm.032-1.104c-1.744 0-3.056-1.44-3.056-3.216v-.032c0-1.744 1.232-3.2 3.024-3.2 1.744 0 3.072 1.456 3.072 3.232v.032c0 1.744-1.248 3.184-3.04 3.184Zm7.76.912v-3.296c0-2.496 1.472-3.792 3.28-3.792h.096v-1.328c-1.568-.064-2.768.928-3.376 2.304v-2.16h-1.232v8.272h1.232Zm8.05.176c1.52 0 2.496-.848 3.168-1.84v1.664h1.232v-11.68h-1.232v4.992c-.64-.928-1.632-1.76-3.168-1.76-1.984 0-3.952 1.6-3.952 4.304v.032c0 2.72 1.968 4.288 3.952 4.288Zm.224-1.104c-1.568 0-2.912-1.248-2.912-3.2v-.032c0-2 1.312-3.184 2.912-3.184 1.536 0 2.992 1.28 2.992 3.184v.032c0 1.904-1.456 3.2-2.992 3.2Zm9.664 1.088c1.648 0 2.944-.912 2.944-2.48v-.032c0-1.488-1.376-1.984-2.656-2.368-1.104-.336-2.128-.64-2.128-1.424v-.032c0-.688.624-1.2 1.6-1.2.8 0 1.68.304 2.448.8l.56-.928c-.848-.56-1.968-.912-2.976-.912-1.632 0-2.816.944-2.816 2.368v.032c0 1.52 1.44 1.968 2.736 2.336 1.088.304 2.064.624 2.064 1.456v.032c0 .8-.72 1.312-1.712 1.312-.976 0-1.968-.384-2.864-1.056l-.624.88c.928.752 2.24 1.216 3.424 1.216Z" fill="#000" fill-rule="nonzero"/><path d="M981.247 549.581v39.729c0 3.534 3.83 6.399 8.556 6.399h74.148c4.725 0 8.556-2.865 8.556-6.399v-39.729h-91.26Z" fill="#D0A4D8"/><path d="M1061.1 536.533a2.14 2.14 0 0 1-2.14 2.14h-44.204a2.139 2.139 0 0 1-2.138-2.14v-7.13c0-1.182.957-2.139 2.138-2.139h44.203c1.182 0 2.14.957 2.14 2.14v7.13Zm-57.038 0a2.14 2.14 0 0 1-2.14 2.14h-7.129a2.14 2.14 0 0 1-2.139-2.14v-7.13c0-1.182.958-2.139 2.14-2.139h7.128c1.182 0 2.14.957 2.14 2.14v7.13Zm59.89-20.676h-74.15a8.556 8.556 0 0 0-8.556 8.555v25.667h91.26v-25.667a8.555 8.555 0 0 0-8.555-8.555Z" fill="#87189D"/><path d="M323.903 483.361c5.28 0 8.928-3.672 8.928-8.4v-.048c0-4.728-3.648-8.352-8.928-8.352h-6.264v16.8h6.264Zm0-2.688h-3.312v-11.424h3.312c3.528 0 5.832 2.424 5.832 5.712v.048c0 3.288-2.304 5.664-5.832 5.664Zm15.408 2.688v-11.952l9.264 11.952h2.472v-16.8h-2.904v11.616l-9-11.616h-2.736v16.8h2.904Zm21.936.24c3.528 0 6-1.872 6-5.016v-.048c0-2.784-1.848-4.056-5.4-4.92-3.216-.768-3.984-1.344-3.984-2.64v-.048c0-1.104 1.008-1.992 2.736-1.992 1.536 0 3.048.6 4.56 1.728l1.584-2.232c-1.704-1.368-3.648-2.112-6.096-2.112-3.336 0-5.736 1.992-5.736 4.872v.048c0 3.096 2.016 4.152 5.592 5.016 3.12.72 3.792 1.368 3.792 2.568v.048c0 1.272-1.152 2.112-2.976 2.112-2.088 0-3.696-.792-5.304-2.184l-1.776 2.112c2.016 1.8 4.44 2.688 7.008 2.688Zm14.88 0c3.528 0 6-1.872 6-5.016v-.048c0-2.784-1.848-4.056-5.4-4.92-3.216-.768-3.984-1.344-3.984-2.64v-.048c0-1.104 1.008-1.992 2.736-1.992 1.536 0 3.048.6 4.56 1.728l1.584-2.232c-1.704-1.368-3.648-2.112-6.096-2.112-3.336 0-5.736 1.992-5.736 4.872v.048c0 3.096 2.016 4.152 5.592 5.016 3.12.72 3.792 1.368 3.792 2.568v.048c0 1.272-1.152 2.112-2.976 2.112-2.088 0-3.696-.792-5.304-2.184l-1.776 2.112c2.016 1.8 4.44 2.688 7.008 2.688Zm22.056-.24v-2.64h-9.624v-4.512h8.424v-2.64h-8.424v-4.368h9.504v-2.64h-12.456v16.8h12.576Zm11.304.288c3.144 0 5.064-1.152 6.816-2.976l-1.896-1.92c-1.44 1.344-2.76 2.184-4.824 2.184-3.216 0-5.544-2.688-5.544-5.976v-.048c0-3.288 2.328-5.928 5.544-5.928 1.92 0 3.36.84 4.704 2.088l1.896-2.184c-1.608-1.536-3.48-2.616-6.576-2.616-5.088 0-8.664 3.912-8.664 8.688v.048c0 4.824 3.648 8.64 8.544 8.64Zm29.688-.288v-2.64h-9.624v-4.512h8.424v-2.64h-8.424v-4.368h9.504v-2.64h-12.456v16.8h12.576Zm6.072 0v-7.152c0-1.968 1.176-3.144 2.856-3.144 1.728 0 2.712 1.128 2.712 3.096v7.2h2.904v-8.064c0-2.952-1.656-4.872-4.512-4.872-1.968 0-3.144 1.032-3.96 2.232v-1.968h-2.904v12.672h2.904Zm15.624.264c1.92 0 3.24-.792 4.104-1.824v1.56h2.88v-7.512c0-3.384-1.824-5.352-5.568-5.352-2.064 0-3.432.432-4.824 1.056l.792 2.328c1.152-.48 2.208-.792 3.624-.792 2.016 0 3.12.96 3.12 2.712v.24c-.984-.312-1.968-.528-3.504-.528-2.952 0-5.136 1.344-5.136 4.152v.048c0 2.544 2.112 3.912 4.512 3.912Zm.816-2.184c-1.368 0-2.448-.672-2.448-1.872v-.048c0-1.224 1.08-1.968 2.904-1.968 1.128 0 2.16.216 2.904.504v.72c0 1.584-1.44 2.664-3.36 2.664Zm16.824 2.184c3.024 0 5.904-2.376 5.904-6.576v-.048c0-4.2-2.904-6.576-5.904-6.576-2.04 0-3.36 1.056-4.296 2.376v-6.96h-2.904v17.52h2.904v-1.968c.888 1.176 2.208 2.232 4.296 2.232Zm-.672-2.52c-1.968 0-3.696-1.608-3.696-4.056v-.048c0-2.424 1.728-4.056 3.696-4.056 1.968 0 3.624 1.608 3.624 4.056v.048c0 2.496-1.632 4.056-3.624 4.056Zm12.624 2.256v-17.52h-2.904v17.52h2.904Zm9.6.288c2.328 0 3.984-.936 5.184-2.376l-1.704-1.512c-1.008.984-2.016 1.512-3.432 1.512-1.872 0-3.336-1.152-3.648-3.216h9.312c.024-.288.048-.552.048-.816 0-3.648-2.04-6.816-6.072-6.816-3.624 0-6.192 2.976-6.192 6.6v.048c0 3.912 2.832 6.576 6.504 6.576Zm2.88-7.512h-6.504c.264-1.968 1.512-3.336 3.288-3.336 1.92 0 3.024 1.464 3.216 3.336Zm11.04 7.488c2.064 0 3.384-1.056 4.32-2.376v2.112h2.904v-17.52h-2.904v6.816c-.912-1.176-2.232-2.232-4.32-2.232-3.024 0-5.88 2.376-5.88 6.576v.048c0 4.2 2.904 6.576 5.88 6.576Zm.696-2.52c-1.968 0-3.648-1.608-3.648-4.056v-.048c0-2.52 1.656-4.056 3.648-4.056 1.944 0 3.672 1.608 3.672 4.056v.048c0 2.424-1.728 4.056-3.672 4.056ZM375.047 513.601c3.528 0 6-1.872 6-5.016v-.048c0-2.784-1.848-4.056-5.4-4.92-3.216-.768-3.984-1.344-3.984-2.64v-.048c0-1.104 1.008-1.992 2.736-1.992 1.536 0 3.048.6 4.56 1.728l1.584-2.232c-1.704-1.368-3.648-2.112-6.096-2.112-3.336 0-5.736 1.992-5.736 4.872v.048c0 3.096 2.016 4.152 5.592 5.016 3.12.72 3.792 1.368 3.792 2.568v.048c0 1.272-1.152 2.112-2.976 2.112-2.088 0-3.696-.792-5.304-2.184l-1.776 2.112c2.016 1.8 4.44 2.688 7.008 2.688Zm15 .048c2.472 0 3.936-.984 5.184-2.376l-1.752-1.728c-.912.936-1.92 1.584-3.288 1.584-2.232 0-3.792-1.824-3.792-4.08v-.048c0-2.208 1.536-4.032 3.648-4.032 1.464 0 2.4.648 3.288 1.584l1.8-1.944c-1.176-1.296-2.664-2.184-5.064-2.184-3.792 0-6.576 3.024-6.576 6.624v.048c0 3.6 2.784 6.552 6.552 6.552Zm12.936 0c2.328 0 3.984-.936 5.184-2.376l-1.704-1.512c-1.008.984-2.016 1.512-3.432 1.512-1.872 0-3.336-1.152-3.648-3.216h9.312c.024-.288.048-.552.048-.816 0-3.648-2.04-6.816-6.072-6.816-3.624 0-6.192 2.976-6.192 6.6v.048c0 3.912 2.832 6.576 6.504 6.576Zm2.88-7.512h-6.504c.264-1.968 1.512-3.336 3.288-3.336 1.92 0 3.024 1.464 3.216 3.336Zm8.712 7.224v-7.152c0-1.968 1.176-3.144 2.856-3.144 1.728 0 2.712 1.128 2.712 3.096v7.2h2.904v-8.064c0-2.952-1.656-4.872-4.512-4.872-1.968 0-3.144 1.032-3.96 2.232v-1.968h-2.904v12.672h2.904Zm15.624.264c1.92 0 3.24-.792 4.104-1.824v1.56h2.88v-7.512c0-3.384-1.824-5.352-5.568-5.352-2.064 0-3.432.432-4.824 1.056l.792 2.328c1.152-.48 2.208-.792 3.624-.792 2.016 0 3.12.96 3.12 2.712v.24c-.984-.312-1.968-.528-3.504-.528-2.952 0-5.136 1.344-5.136 4.152v.048c0 2.544 2.112 3.912 4.512 3.912Zm.816-2.184c-1.368 0-2.448-.672-2.448-1.872v-.048c0-1.224 1.08-1.968 2.904-1.968 1.128 0 2.16.216 2.904.504v.72c0 1.584-1.44 2.664-3.36 2.664Zm12.528 1.92v-4.824c0-3.36 1.776-5.016 4.32-5.016h.168v-3.072c-2.232-.096-3.696 1.2-4.488 3.096v-2.856h-2.904v12.672h2.904Zm10.176-14.616v-2.76h-3.12v2.76h3.12Zm-.096 14.616v-12.672h-2.904v12.672h2.904Zm9.816.288c3.912 0 6.792-3 6.792-6.6v-.048c0-3.624-2.856-6.576-6.744-6.576s-6.768 3-6.768 6.624v.048c0 3.6 2.856 6.552 6.72 6.552Zm.048-2.52c-2.256 0-3.864-1.872-3.864-4.08v-.048c0-2.208 1.488-4.032 3.816-4.032 2.28 0 3.888 1.848 3.888 4.08v.048c0 2.184-1.488 4.032-3.84 4.032Z" fill="#000" fill-rule="nonzero"/></g></svg>
