<?xml version="1.0" encoding="UTF-8" standalone="no"?>
<!DOCTYPE svg PUBLIC "-//W3C//DTD SVG 1.1//EN" "http://www.w3.org/Graphics/SVG/1.1/DTD/svg11.dtd">
<svg width="1280" height="800" viewBox="0 0 1280 800" xmlns="http://www.w3.org/2000/svg" xmlns:xlink="http://www.w3.org/1999/xlink">
<desc>Produced by GNUPLOT 4.2 patchlevel 6  </desc>

<defs>

	<circle id="gpDot" r="0.5" stroke-width="0.5"/>
	<path id="gpPt0" stroke-width="0.111" stroke="currentColor" d="M-1,0 h2 M0,-1 v2"/>
	<path id="gpPt1" stroke-width="0.111" stroke="currentColor" d="M-1,-1 L1,1 M1,-1 L-1,1"/>
	<path id="gpPt2" stroke-width="0.111" stroke="currentColor" d="M-1,0 L1,0 M0,-1 L0,1 M-1,-1 L1,1 M-1,1 L1,-1"/>
	<rect id="gpPt3" stroke-width="0.111" stroke="currentColor" x="-1" y="-1" width="2" height="2"/>
	<rect id="gpPt4" stroke-width="0.111" stroke="currentColor" fill="currentColor" x="-1" y="-1" width="2" height="2"/>
	<circle id="gpPt5" stroke-width="0.111" stroke="currentColor" cx="0" cy="0" r="1"/>
	<use xlink:href="#gpPt5" id="gpPt6" fill="currentColor" stroke="none"/>
	<path id="gpPt7" stroke-width="0.111" stroke="currentColor" d="M0,-1.33 L-1.33,0.67 L1.33,0.67 z"/>
	<use xlink:href="#gpPt7" id="gpPt8" fill="currentColor" stroke="none"/>
	<use xlink:href="#gpPt7" id="gpPt9" stroke="currentColor" transform="rotate(180)"/>
	<use xlink:href="#gpPt9" id="gpPt10" fill="currentColor" stroke="none"/>
	<use xlink:href="#gpPt3" id="gpPt11" stroke="currentColor" transform="rotate(45)"/>
	<use xlink:href="#gpPt11" id="gpPt12" fill="currentColor" stroke="none"/>
</defs>
<g style="fill:none; color:white; stroke:currentColor; stroke-width:1.00; stroke-linecap:butt; stroke-linejoin:miter">
</g>
<g style="fill:none; color:black; stroke:currentColor; stroke-width:1.00; stroke-linecap:butt; stroke-linejoin:miter">
</g>
<g style="fill:none; color:gray; stroke:currentColor; stroke-width:1.00; stroke-linecap:butt; stroke-linejoin:miter">
	<path d="M186.9,684.8 L1229.2,684.8 "/>
</g>
<g style="fill:none; color:black; stroke:currentColor; stroke-width:1.00; stroke-linecap:butt; stroke-linejoin:miter">
	<path d="M186.9,684.8 L204.9,684.8 M1229.2,684.8 L1211.2,684.8 "/>
	<g transform="translate(170.2, 693.8)" style="stroke:none; fill:black; font-family:Arial; font-size:24.00pt; text-anchor:end">
		<text><tspan> 0</tspan>
		</text>
	</g>
</g>
<g style="fill:none; color:gray; stroke:currentColor; stroke-width:1.00; stroke-linecap:butt; stroke-linejoin:miter">
	<path d="M186.9,619.7 L1229.2,619.7 "/>
</g>
<g style="fill:none; color:black; stroke:currentColor; stroke-width:1.00; stroke-linecap:butt; stroke-linejoin:miter">
	<path d="M186.9,619.7 L204.9,619.7 M1229.2,619.7 L1211.2,619.7 "/>
	<g transform="translate(170.2, 628.7)" style="stroke:none; fill:black; font-family:Arial; font-size:24.00pt; text-anchor:end">
		<text><tspan> 0.1</tspan>
		</text>
	</g>
</g>
<g style="fill:none; color:gray; stroke:currentColor; stroke-width:1.00; stroke-linecap:butt; stroke-linejoin:miter">
	<path d="M186.9,554.5 L1229.2,554.5 "/>
</g>
<g style="fill:none; color:black; stroke:currentColor; stroke-width:1.00; stroke-linecap:butt; stroke-linejoin:miter">
	<path d="M186.9,554.5 L204.9,554.5 M1229.2,554.5 L1211.2,554.5 "/>
	<g transform="translate(170.2, 563.5)" style="stroke:none; fill:black; font-family:Arial; font-size:24.00pt; text-anchor:end">
		<text><tspan> 0.2</tspan>
		</text>
	</g>
</g>
<g style="fill:none; color:gray; stroke:currentColor; stroke-width:1.00; stroke-linecap:butt; stroke-linejoin:miter">
	<path d="M186.9,489.4 L1229.2,489.4 "/>
</g>
<g style="fill:none; color:black; stroke:currentColor; stroke-width:1.00; stroke-linecap:butt; stroke-linejoin:miter">
	<path d="M186.9,489.4 L204.9,489.4 M1229.2,489.4 L1211.2,489.4 "/>
	<g transform="translate(170.2, 498.4)" style="stroke:none; fill:black; font-family:Arial; font-size:24.00pt; text-anchor:end">
		<text><tspan> 0.3</tspan>
		</text>
	</g>
</g>
<g style="fill:none; color:gray; stroke:currentColor; stroke-width:1.00; stroke-linecap:butt; stroke-linejoin:miter">
	<path d="M186.9,424.2 L1229.2,424.2 "/>
</g>
<g style="fill:none; color:black; stroke:currentColor; stroke-width:1.00; stroke-linecap:butt; stroke-linejoin:miter">
	<path d="M186.9,424.2 L204.9,424.2 M1229.2,424.2 L1211.2,424.2 "/>
	<g transform="translate(170.2, 433.2)" style="stroke:none; fill:black; font-family:Arial; font-size:24.00pt; text-anchor:end">
		<text><tspan> 0.4</tspan>
		</text>
	</g>
</g>
<g style="fill:none; color:gray; stroke:currentColor; stroke-width:1.00; stroke-linecap:butt; stroke-linejoin:miter">
	<path d="M186.9,359.1 L1229.2,359.1 "/>
</g>
<g style="fill:none; color:black; stroke:currentColor; stroke-width:1.00; stroke-linecap:butt; stroke-linejoin:miter">
	<path d="M186.9,359.1 L204.9,359.1 M1229.2,359.1 L1211.2,359.1 "/>
	<g transform="translate(170.2, 368.1)" style="stroke:none; fill:black; font-family:Arial; font-size:24.00pt; text-anchor:end">
		<text><tspan> 0.5</tspan>
		</text>
	</g>
</g>
<g style="fill:none; color:gray; stroke:currentColor; stroke-width:1.00; stroke-linecap:butt; stroke-linejoin:miter">
	<path d="M186.9,294.0 L1229.2,294.0 "/>
</g>
<g style="fill:none; color:black; stroke:currentColor; stroke-width:1.00; stroke-linecap:butt; stroke-linejoin:miter">
	<path d="M186.9,294.0 L204.9,294.0 M1229.2,294.0 L1211.2,294.0 "/>
	<g transform="translate(170.2, 303)" style="stroke:none; fill:black; font-family:Arial; font-size:24.00pt; text-anchor:end">
		<text><tspan> 0.6</tspan>
		</text>
	</g>
</g>
<g style="fill:none; color:gray; stroke:currentColor; stroke-width:1.00; stroke-linecap:butt; stroke-linejoin:miter">
	<path d="M186.9,228.8 L1229.2,228.8 "/>
</g>
<g style="fill:none; color:black; stroke:currentColor; stroke-width:1.00; stroke-linecap:butt; stroke-linejoin:miter">
	<path d="M186.9,228.8 L204.9,228.8 M1229.2,228.8 L1211.2,228.8 "/>
	<g transform="translate(170.2, 237.8)" style="stroke:none; fill:black; font-family:Arial; font-size:24.00pt; text-anchor:end">
		<text><tspan> 0.7</tspan>
		</text>
	</g>
</g>
<g style="fill:none; color:gray; stroke:currentColor; stroke-width:1.00; stroke-linecap:butt; stroke-linejoin:miter">
	<path d="M186.9,163.7 L1229.2,163.7 "/>
</g>
<g style="fill:none; color:black; stroke:currentColor; stroke-width:1.00; stroke-linecap:butt; stroke-linejoin:miter">
	<path d="M186.9,163.7 L204.9,163.7 M1229.2,163.7 L1211.2,163.7 "/>
	<g transform="translate(170.2, 172.7)" style="stroke:none; fill:black; font-family:Arial; font-size:24.00pt; text-anchor:end">
		<text><tspan> 0.8</tspan>
		</text>
	</g>
</g>
<g style="fill:none; color:gray; stroke:currentColor; stroke-width:1.00; stroke-linecap:butt; stroke-linejoin:miter">
	<path d="M186.9,98.5 L1229.2,98.5 "/>
</g>
<g style="fill:none; color:black; stroke:currentColor; stroke-width:1.00; stroke-linecap:butt; stroke-linejoin:miter">
	<path d="M186.9,98.5 L204.9,98.5 M1229.2,98.5 L1211.2,98.5 "/>
	<g transform="translate(170.2, 107.5)" style="stroke:none; fill:black; font-family:Arial; font-size:24.00pt; text-anchor:end">
		<text><tspan> 0.9</tspan>
		</text>
	</g>
</g>
<g style="fill:none; color:gray; stroke:currentColor; stroke-width:1.00; stroke-linecap:butt; stroke-linejoin:miter">
	<path d="M186.9,33.4 L1229.2,33.4 "/>
</g>
<g style="fill:none; color:black; stroke:currentColor; stroke-width:1.00; stroke-linecap:butt; stroke-linejoin:miter">
	<path d="M186.9,33.4 L204.9,33.4 M1229.2,33.4 L1211.2,33.4 "/>
	<g transform="translate(170.2, 42.4)" style="stroke:none; fill:black; font-family:Arial; font-size:24.00pt; text-anchor:end">
		<text><tspan> 1</tspan>
		</text>
	</g>
	<path d="M186.9,684.8 L186.9,666.8 M186.9,33.4 L186.9,51.4 "/>
	<g transform="translate(186.9, 729.8)" style="stroke:none; fill:black; font-family:Arial; font-size:24.00pt; text-anchor:middle">
		<text><tspan> 0</tspan>
		</text>
	</g>
	<path d="M291.1,684.8 L291.1,666.8 M291.1,33.4 L291.1,51.4 "/>
	<g transform="translate(291.1, 729.8)" style="stroke:none; fill:black; font-family:Arial; font-size:24.00pt; text-anchor:middle">
		<text><tspan> 10</tspan>
		</text>
	</g>
	<path d="M395.4,684.8 L395.4,666.8 M395.4,33.4 L395.4,51.4 "/>
	<g transform="translate(395.4, 729.8)" style="stroke:none; fill:black; font-family:Arial; font-size:24.00pt; text-anchor:middle">
		<text><tspan> 20</tspan>
		</text>
	</g>
	<path d="M499.6,684.8 L499.6,666.8 M499.6,33.4 L499.6,51.4 "/>
	<g transform="translate(499.6, 729.8)" style="stroke:none; fill:black; font-family:Arial; font-size:24.00pt; text-anchor:middle">
		<text><tspan> 30</tspan>
		</text>
	</g>
	<path d="M603.8,684.8 L603.8,666.8 M603.8,33.4 L603.8,51.4 "/>
	<g transform="translate(603.8, 729.8)" style="stroke:none; fill:black; font-family:Arial; font-size:24.00pt; text-anchor:middle">
		<text><tspan> 40</tspan>
		</text>
	</g>
	<path d="M708.1,684.8 L708.1,666.8 M708.1,33.4 L708.1,51.4 "/>
	<g transform="translate(708.1, 729.8)" style="stroke:none; fill:black; font-family:Arial; font-size:24.00pt; text-anchor:middle">
		<text><tspan> 50</tspan>
		</text>
	</g>
	<path d="M812.3,684.8 L812.3,666.8 M812.3,33.4 L812.3,51.4 "/>
	<g transform="translate(812.3, 729.8)" style="stroke:none; fill:black; font-family:Arial; font-size:24.00pt; text-anchor:middle">
		<text><tspan> 60</tspan>
		</text>
	</g>
	<path d="M916.5,684.8 L916.5,666.8 M916.5,33.4 L916.5,51.4 "/>
	<g transform="translate(916.5, 729.8)" style="stroke:none; fill:black; font-family:Arial; font-size:24.00pt; text-anchor:middle">
		<text><tspan> 70</tspan>
		</text>
	</g>
	<path d="M1020.7,684.8 L1020.7,666.8 M1020.7,33.4 L1020.7,51.4 "/>
	<g transform="translate(1020.7, 729.8)" style="stroke:none; fill:black; font-family:Arial; font-size:24.00pt; text-anchor:middle">
		<text><tspan> 80</tspan>
		</text>
	</g>
	<path d="M1125.0,684.8 L1125.0,666.8 M1125.0,33.4 L1125.0,51.4 "/>
	<g transform="translate(1125, 729.8)" style="stroke:none; fill:black; font-family:Arial; font-size:24.00pt; text-anchor:middle">
		<text><tspan> 90</tspan>
		</text>
	</g>
	<path d="M1229.2,684.8 L1229.2,666.8 M1229.2,33.4 L1229.2,51.4 "/>
	<g transform="translate(1229.2, 729.8)" style="stroke:none; fill:black; font-family:Arial; font-size:24.00pt; text-anchor:middle">
		<text><tspan> 100</tspan>
		</text>
	</g>
	<path d="M186.9,33.4 L186.9,684.8 L1229.2,684.8 L1229.2,33.4 L186.9,33.4 Z "/>
	<g transform="translate(77.7, 359.1) rotate(-90)" style="stroke:none; fill:black; font-family:Arial; font-size:24.00pt; text-anchor:middle">
		<text><tspan>Probability of a pair</tspan>
		</text>
	</g>
	<g transform="translate(708, 783.8)" style="stroke:none; fill:black; font-family:Arial; font-size:24.00pt; text-anchor:middle">
		<text><tspan>Number of people</tspan>
		</text>
	</g>
	<g transform="translate(428.7, 706.8)" style="stroke:none; fill:black; font-family:Arial; font-size:16.00pt; text-anchor:middle">
		<text><tspan>23</tspan>
		</text>
	</g>
	<path d="M426.6,684.8 L426.6,354.4 M186.9,354.4 L426.6,354.4 "/>
</g>
<g style="fill:none; color:black; stroke:currentColor; stroke-width:2.00; stroke-linecap:butt; stroke-linejoin:miter">
</g>
<g style="fill:none; color:red; stroke:currentColor; stroke-width:2.00; stroke-linecap:butt; stroke-linejoin:miter">
	<path d="M197.3,684.8 L207.7,684.8 L207.7,683.0 L218.2,683.0 L218.2,679.5 L228.6,679.5 L228.6,674.1 L239.0,674.1    L239.0,667.1 L249.4,667.1 L249.4,658.4 L259.9,658.4 L259.9,648.2 L270.3,648.2 L270.3,636.4 L280.7,636.4    L280.7,623.2 L291.1,623.2 L291.1,608.6 L301.6,608.6 L301.6,592.9 L312.0,592.9 L312.0,576.0 L322.4,576.0    L322.4,558.2 L332.8,558.2 L332.8,539.5 L343.2,539.5 L343.2,520.1 L353.7,520.1 L353.7,500.1 L364.1,500.1    L364.1,479.6 L374.5,479.6 L374.5,458.8 L384.9,458.8 L384.9,437.8 L395.4,437.8 L395.4,416.8 L405.8,416.8    L405.8,395.8 L416.2,395.8 L416.2,374.9 L426.6,374.9 L426.6,354.3 L437.1,354.3 L437.1,334.1 L447.5,334.1    L447.5,314.3 L457.9,314.3 L457.9,295.1 L468.3,295.1 L468.3,276.5 L478.7,276.5 L478.7,258.5 L489.2,258.5    L489.2,241.2 L499.6,241.2 L499.6,224.7 L510.0,224.7 L510.0,209.0 L520.4,209.0 L520.4,194.1 L530.9,194.1    L530.9,180.0 L541.3,180.0 L541.3,166.7 L551.7,166.7 L551.7,154.3 L562.1,154.3 L562.1,142.7 L572.6,142.7    L572.6,131.9 L583.0,131.9 L583.0,121.9 L593.4,121.9 L593.4,112.7 L603.8,112.7 L603.8,104.3 L614.2,104.3    L614.2,96.5 L624.7,96.5 L624.7,89.4 L635.1,89.4 L635.1,83.0 L645.5,83.0 L645.5,77.1 L655.9,77.1    L655.9,71.8 L666.4,71.8 L666.4,67.1 L676.8,67.1 L676.8,62.9 L687.2,62.9 L687.2,59.1 L697.6,59.1    L697.6,55.7 L708.1,55.7 L708.1,52.7 L718.5,52.7 L718.5,50.1 L728.9,50.1 L728.9,47.7 L739.3,47.7    L739.3,45.7 L749.7,45.7 L749.7,43.9 L760.2,43.9 L760.2,42.3 L770.6,42.3 L770.6,41.0 L781.0,41.0    L781.0,39.8 L791.4,39.8 L791.4,38.8 L801.9,38.8 L801.9,38.0 L812.3,38.0 L812.3,37.2 L822.7,37.2    L822.7,36.6 L833.1,36.6 L833.1,36.1 L843.5,36.1 L843.5,35.6 L854.0,35.6 L854.0,35.2 L864.4,35.2    L864.4,34.9 L874.8,34.9 L874.8,34.6 L885.2,34.6 L885.2,34.4 L895.7,34.4 L895.7,34.2 L906.1,34.2    L906.1,34.1 L916.5,34.1 L916.5,33.9 L926.9,33.9 L926.9,33.8 L937.4,33.8 L947.8,33.8 L947.8,33.7    L958.2,33.7 L958.2,33.6 L968.6,33.6 L979.0,33.6 L979.0,33.5 L989.5,33.5 L999.9,33.5 L1010.3,33.5    L1020.7,33.5 L1031.2,33.5 L1031.2,33.4 L1041.6,33.4 L1052.0,33.4 L1062.4,33.4 L1072.9,33.4 L1083.3,33.4    L1093.7,33.4 L1104.1,33.4 L1114.5,33.4 L1125.0,33.4 L1135.4,33.4 L1145.8,33.4 L1156.2,33.4 L1166.7,33.4    L1177.1,33.4 L1187.5,33.4 L1197.9,33.4 L1208.4,33.4 L1218.8,33.4 L1229.2,33.4 "/>
</g>
<g style="fill:none; color:red; stroke:currentColor; stroke-width:1.00; stroke-linecap:butt; stroke-linejoin:miter">
</g>
<g style="fill:none; color:black; stroke:currentColor; stroke-width:1.00; stroke-linecap:butt; stroke-linejoin:miter">
	<path d="M186.9,33.4 L186.9,684.8 L1229.2,684.8 L1229.2,33.4 L186.9,33.4 Z "/>
</g>
</svg>